<svg width="25" height="25" viewBox="0 0 25 25" fill="none" xmlns="http://www.w3.org/2000/svg">
<path d="M9.375 21.875H15.625" stroke="#1C1C1C" stroke-width="1.2" stroke-linecap="round" stroke-linejoin="round"/>
<path d="M5.48856 10.9375C5.48599 10.0151 5.66545 9.10116 6.01667 8.24819C6.3679 7.39521 6.88397 6.61992 7.53534 5.96674C8.1867 5.31355 8.96055 4.79531 9.81254 4.44171C10.6645 4.08811 11.5779 3.90609 12.5004 3.90609C13.4228 3.90609 14.3362 4.08811 15.1882 4.44171C16.0402 4.79531 16.814 5.31355 17.4654 5.96674C18.1168 6.61992 18.6328 7.39521 18.9841 8.24819C19.3353 9.10116 19.5148 10.0151 19.5122 10.9375V10.9375C19.5122 14.4351 20.2439 16.4647 20.8884 17.574C20.9579 17.6926 20.9948 17.8273 20.9956 17.9647C20.9963 18.102 20.9608 18.2372 20.8926 18.3564C20.8245 18.4757 20.7261 18.5749 20.6073 18.644C20.4886 18.7131 20.3538 18.7497 20.2164 18.75H4.78354C4.64616 18.7497 4.5113 18.7131 4.39257 18.644C4.27384 18.5748 4.17543 18.4756 4.10728 18.3564C4.03913 18.2371 4.00365 18.1019 4.00441 17.9645C4.00517 17.8272 4.04214 17.6924 4.11161 17.5739C4.75646 16.4645 5.48856 14.4349 5.48856 10.9375H5.48856Z" stroke="#1C1C1C" stroke-width="1.2" stroke-linecap="round" stroke-linejoin="round"/>
<path d="M17.9133 2.34261C19.503 3.34619 20.7845 4.76951 21.6163 6.45546" stroke="#1C1C1C" stroke-width="1.2" stroke-linecap="round" stroke-linejoin="round"/>
<path d="M3.38354 6.45546C4.21534 4.76951 5.49682 3.34618 7.08652 2.34261" stroke="#1C1C1C" stroke-width="1.2" stroke-linecap="round" stroke-linejoin="round"/>
</svg>
