<svg width="68" height="68" viewBox="0 0 68 68" fill="none" xmlns="http://www.w3.org/2000/svg">
<g clip-path="url(#clip0_105_164)">
<path d="M48.3 68V62.3H45V68H43.7001V62.3H35.7001V61H46V37.6L36 17.6L28.6 21.7C28.0001 22 27.5001 22.5 27.1 23.1C26.7 23.7 26.6 24.4 26.6 25.1V30H25.3V25.2C25.3 24.3 25.6 23.3 26 22.5C26.5 21.7 27.2 21 28 20.6L35.9001 16.2L38 14.1C38.4 13.7 38.9001 13.4 39.4001 13.3C39.6001 13.3 39.8 13.2 40 13.2C40.3 13.2 40.7 13.3 41 13.4L41.5 13.6L42.1 11.3C42.3 10.7 42.6 10.1 43.1 9.7C43.6 9.3 44.3001 9.1 44.9001 9.1H45.9001V5.8L45.6 5.7C45 5.5 44.4 5 44.1 4.4C43.7 3.8 43.6 3.1 43.7001 2.4C43.8001 1.7 44.2001 1.1 44.7001 0.6C45.2001 0.2 45.9 0 46.6 0C47.3 0 48 0.2 48.5 0.7C49 1.2 49.4 1.8 49.5 2.5C49.6 3.2 49.5 3.9 49.1 4.5C48.7 5.1 48.2001 5.6 47.5 5.8L47.2001 5.9V9.3H48.2001C48.9001 9.3 49.5 9.5 50 9.9C50.5 10.3 50.9 10.9 51 11.5L51.6 13.8L52.1 13.6C52.4 13.5 52.8 13.4 53.1 13.4C53.3 13.4 53.5 13.4 53.7001 13.5C54.2001 13.6 54.7 13.9 55.1 14.3L57.1 16.3L65 20.7C65.8 21.2 66.5 21.8 67 22.6C67.5 23.4 67.7 24.3 67.7 25.3V53.6C67.7 54.4 67.4001 55.1 66.8001 55.7C66.2001 56.3 65.5 56.6 64.7 56.6H61V59.4C61 60.2 60.7 60.9 60.1 61.5C59.5 62.1 58.8 62.4 58 62.4H49.5V68H48.3ZM47.3 37.6V60.9H58.1C58.5 60.9 59 60.7 59.3 60.4C59.6 60.1 59.8 59.7 59.8 59.2V28.7H61V50.5H66.6V25.2C66.6 24.5 66.4 23.8 66.1 23.2C65.7 22.6 65.2 22.1 64.6 21.8L57.2001 17.7L47.3 37.6ZM61 55.2H65C65.4001 55.2 65.9 55 66.2 54.7C66.5 54.4 66.7 54 66.7 53.5V51.9H61V55.2ZM39.3 21.4L46.6 36L53.9001 21.4L53.1 20.8L51.4001 22.3C51.1001 22.6 50.7001 22.7 50.2001 22.7C50.1 22.7 50.1 22.7 50 22.7C49.8 22.7 49.5 22.6 49.3 22.5C49.1 22.4 48.9 22.2 48.8 22L46.6 19L44.4001 21.9C44.3001 22.1 44.1001 22.3 43.9001 22.4C43.7001 22.5 43.5 22.6 43.2001 22.6C43.1 22.6 43.1 22.6 43 22.6C42.6 22.6 42.2 22.5 41.8 22.2L40.1 20.7L39.3 21.4ZM53.2001 14.6C52.9001 14.6 52.6 14.7 52.3 14.9L47.5 18.1L50.1 21.6L55.9001 16.7L54.3 15.1C54 14.8 53.7 14.7 53.3 14.6C53.3 14.6 53.3001 14.6 53.2001 14.6ZM39.8 14.6C39.4 14.6 39.1 14.8 38.8 15.1L37.2001 16.7L43 21.6L45.6 18.1L40.8 14.9C40.5 14.7 40.2001 14.6 39.9001 14.6C40.0001 14.6 39.9 14.6 39.8 14.6ZM45 10.5C44.6 10.5 44.3 10.6 44 10.8C43.7001 11 43.5001 11.3 43.4001 11.7L42.7001 14.4L46.6 17L50.5 14.4L49.8 11.7C49.7 11.3 49.5 11 49.2001 10.8C48.9001 10.6 48.5 10.5 48.2001 10.5H45ZM46.6 1.3C46.2 1.3 45.7001 1.5 45.4001 1.8C45.1001 2.1 45 2.5 45 3C45 3.3 45.1 3.6 45.3 3.9C45.5 4.2 45.7001 4.4 46 4.5C46.2001 4.6 46.4 4.6 46.6 4.6C46.7 4.6 46.8001 4.6 46.9001 4.6C47.2001 4.5 47.5 4.4 47.7001 4.1C47.9001 3.9 48.1 3.6 48.2001 3.3C48.3001 3 48.2 2.6 48.1 2.3C48 2 47.8 1.7 47.5 1.6C47.3 1.4 46.9 1.3 46.6 1.3Z" fill="#555555"/>
<path d="M42 43.8C41.6 43.8 41.4 43.5 41.4 43.2C41.4 42.8 41.7 42.6 42 42.6C42.4 42.6 42.6 42.9 42.6 43.2C42.7 43.5 42.4 43.8 42 43.8Z" fill="#555555"/>
<path d="M42 49.6C41.6 49.6 41.4 49.3 41.4 49C41.4 48.6 41.7 48.4 42 48.4C42.4 48.4 42.6 48.7 42.6 49C42.7 49.3 42.4 49.6 42 49.6Z" fill="#555555"/>
<path d="M42 55.3C41.6 55.3 41.4 55 41.4 54.7C41.4 54.3 41.7 54.1 42 54.1C42.4 54.1 42.6 54.4 42.6 54.7C42.7 55 42.4 55.3 42 55.3Z" fill="#555555"/>
<path d="M2.9 68C2.1 68 1.4 67.7 0.8 67.1C0.3 66.5 0 65.8 0 65V62.7C0 61.9 0.3 61.2 0.9 60.6C1.5 60 2.2 59.7 3 59.7H3.5V48.4H3C2.2 48.4 1.5 48.1 0.9 47.5C0.3 47 0 46.2 0 45.5V40.9C0 40.1 0.3 39.4 0.9 38.8C1.5 38.2 2.2 37.9 3 37.9H4.6V33.3H5.9V37.9H11.5V33.3H12.8V37.9H20.7V37.4C20.7 36.6 21 35.9 21.6 35.3C22.2 34.7 22.9 34.4 23.7 34.4H28.3C29.1 34.4 29.8 34.7 30.4 35.3C31 35.9 31.3 36.6 31.3 37.4V47.7C31.3 48.9 30.9 50.1 30.1 51C29.3 51.9 28.3 52.6 27.1 52.8L26.6 53V56.5H25.3V53L24.9 52.9C23.9 52.7 23 52.2 22.2 51.5C21.5 50.8 21 49.9 20.8 48.8L20.7 48.4H15.1V59.7H29.4C30.2 59.7 30.9 60 31.5 60.6C32.1 61.2 32.4 61.9 32.4 62.7V65C32.4 65.8 32.1 66.5 31.5 67.1C30.9 67.7 30.2 68 29.4 68H2.9ZM2.9 61.1C2.5 61.1 2 61.3 1.7 61.6C1.4 61.9 1.2 62.3 1.2 62.8V65C1.2 65.4 1.4 65.9 1.7 66.2C2 66.5 2.4 66.7 2.9 66.7H29.3C29.7 66.7 30.2 66.5 30.5 66.2C30.8 65.9 31 65.5 31 65V62.7C31 62.3 30.8 61.8 30.5 61.5C30.2 61.2 29.8 61 29.3 61H2.9V61.1ZM4.7 59.8H13.7V48.4H4.7V59.8ZM23.6 35.8C23.2 35.8 22.7 36 22.4 36.3C22.2 36.6 22 37 22 37.4V47.7C22 48.8 22.4 49.7 23.2 50.5C23.9 51.2 24.9 51.7 26 51.7C27.1 51.7 28 51.3 28.8 50.5C29.5 49.8 30 48.8 30 47.7V37.4C30 37 29.8 36.5 29.5 36.2C29.2 35.9 28.8 35.7 28.3 35.7H23.6V35.8ZM2.9 39.2C2.5 39.2 2 39.4 1.7 39.7C1.4 40 1.2 40.4 1.2 40.9V45.5C1.2 45.9 1.4 46.4 1.7 46.7C2 47 2.4 47.2 2.9 47.2H20.6V39.3H2.9V39.2Z" fill="#555555"/>
</g>
<defs>
<clipPath id="clip0_105_164">
<rect width="67.9" height="68" fill="white"/>
</clipPath>
</defs>
</svg>
