<svg width="25" height="25" viewBox="0 0 25 25" fill="none" xmlns="http://www.w3.org/2000/svg">
<path d="M20.3118 8.59375H4.68677C4.2553 8.59375 3.90552 8.94353 3.90552 9.375V20.3125C3.90552 20.744 4.2553 21.0938 4.68677 21.0938H20.3118C20.7432 21.0938 21.093 20.744 21.093 20.3125V9.375C21.093 8.94353 20.7432 8.59375 20.3118 8.59375Z" stroke="#1C1C1C" stroke-width="1.2" stroke-linecap="round" stroke-linejoin="round"/>
<path d="M8.98364 8.59375V5.07812C8.98364 4.14572 9.35404 3.25151 10.0133 2.5922C10.6727 1.9329 11.5669 1.5625 12.4993 1.5625C13.4317 1.5625 14.3259 1.9329 14.9852 2.5922C15.6445 3.25151 16.0149 4.14572 16.0149 5.07812V8.59375" stroke="#1C1C1C" stroke-width="1.2" stroke-linecap="round" stroke-linejoin="round"/>
</svg>
