<svg width="24" height="24" viewBox="0 0 24 24" fill="none" xmlns="http://www.w3.org/2000/svg">
<path d="M2.07001 11.14C2.09001 10.95 2.12001 10.77 2.17001 10.59C3.21001 11.47 4.56001 12 6.03001 12C9.34001 12 12.03 9.30998 12.03 5.99998C12.03 4.52998 11.5 3.17998 10.62 2.13998C10.8 2.08998 10.98 2.05998 11.17 2.03998C12.02 1.95998 12.89 1.99998 13.79 2.14998C17.9 2.84998 21.21 6.17998 21.89 10.3C23.02 17.15 17.18 22.99 10.33 21.86C6.21001 21.18 2.88001 17.87 2.18001 13.76C2.03001 12.86 1.99001 11.99 2.07001 11.14Z" stroke="#656969" stroke-linecap="round" stroke-linejoin="round"/>
<path d="M2.17003 10.59C2.31003 10.1 2.57003 9.66 2.94003 9.29L9.32003 2.91C9.69003 2.54 10.13 2.28 10.62 2.14C11.5 3.18 12.03 4.53 12.03 6C12.03 9.31 9.34003 12 6.03003 12C4.56003 12 3.21003 11.47 2.17003 10.59Z" stroke="#656969" stroke-linecap="round" stroke-linejoin="round"/>
</svg>
