<svg width="21" height="29" viewBox="0 0 21 29" fill="none" xmlns="http://www.w3.org/2000/svg">
<g clip-path="url(#clip0_164_1248)">
<path d="M17.4824 5.86755C17.624 5.32693 17.8834 4.82578 18.2416 4.4014C18.525 4.06619 18.7473 3.68204 18.8979 3.26713C19.079 2.70037 19.1961 2.11446 19.247 1.52073C19.247 1.35553 19.1934 1.2449 19.0181 1.2449C18.8428 1.2449 18.8008 1.32455 18.7834 1.5399C18.766 1.75525 18.598 3.09013 18.2416 3.61228C17.9518 4.02823 17.6693 4.3424 17.5549 4.53858C17.4317 2.90575 17.1304 1.96765 16.8377 1.30685C16.6617 0.892549 16.4503 0.494745 16.2061 0.117998C16.1816 0.081926 16.1492 0.0521109 16.1115 0.0308745C16.0738 0.00963814 16.0318 -0.00244307 15.9888 -0.00442505C15.9231 0.00349873 15.8625 0.0356224 15.8184 0.08589C15.7744 0.136158 15.75 0.201095 15.7497 0.268451C15.7497 0.392351 16.1698 0.828948 16.5943 2.0119C16.8075 2.6139 16.9589 3.23671 17.0463 3.8704C17.0826 4.25685 17.0666 4.61528 17.084 4.94716C16.893 4.52875 16.6339 4.14625 16.3176 3.81583C15.4788 2.96623 15.5092 3.43085 14.8689 2.5547C14.3951 1.91013 14.482 1.40568 14.172 1.40568C14.1431 1.40557 14.1145 1.41159 14.0879 1.42336C14.0614 1.43512 14.0376 1.45237 14.018 1.47401C13.9984 1.49564 13.9834 1.5212 13.974 1.54905C13.9646 1.5769 13.961 1.60643 13.9634 1.63578C13.9634 1.88063 14.2807 2.5842 14.5835 2.95148C15.0427 3.50755 15.5252 3.56508 15.983 4.0887C16.4756 4.70393 16.747 5.47205 16.7523 6.26581C16.7523 7.13753 16.5885 7.39271 16.4625 7.70836C16.3365 8.02401 15.6338 9.38838 15.076 10.0802C14.5183 10.7719 13.3665 12.098 12.758 12.5552C12.8121 12.2319 12.8446 11.9051 12.8551 11.5773C12.8551 11.3472 12.8725 10.8929 12.6117 10.8929C12.406 10.8929 12.3857 10.9961 12.3857 11.1805C12.4326 11.6469 12.3492 12.1172 12.1452 12.5375C11.8279 13.1408 11.7584 13.3635 11.4208 13.6467C11.0832 13.9299 10.7413 14.1571 10.4777 14.3414C10.3637 14.3097 10.2466 14.2914 10.1285 14.2869H9.98364C9.86559 14.2914 9.74844 14.3097 9.63449 14.3414C9.36936 14.1571 9.03615 13.9299 8.69135 13.6467C8.34654 13.3635 8.277 13.1393 7.96697 12.5375C7.76292 12.1172 7.67956 11.6469 7.72647 11.1805C7.72647 10.9961 7.70619 10.8929 7.50047 10.8929C7.23969 10.8929 7.25707 11.3472 7.25707 11.5773C7.26759 11.9051 7.30002 12.2319 7.35414 12.5552C6.74131 12.098 5.5881 10.7719 5.03612 10.0802C4.48414 9.38838 3.7757 8.02401 3.64966 7.70836C3.52362 7.39271 3.35991 7.13753 3.35991 6.26581C3.3575 5.4773 3.61799 4.71131 4.09877 4.09313C4.55658 3.56803 5.03902 3.51198 5.49828 2.9559C5.80107 2.58863 6.11835 1.88505 6.11835 1.6402C6.12076 1.61086 6.11715 1.58132 6.10775 1.55347C6.09835 1.52562 6.08337 1.50007 6.06375 1.47843C6.04413 1.45679 6.02031 1.43955 5.99379 1.42778C5.96728 1.41602 5.93865 1.41 5.90972 1.4101C5.59969 1.4101 5.68662 1.91308 5.21287 2.55913C4.56962 3.43528 4.60005 2.97065 3.76411 3.82025C3.44782 4.15067 3.1887 4.53318 2.99772 4.95158C3.0151 4.62118 2.99772 4.26128 3.03538 3.87483C3.1228 3.24113 3.27427 2.61833 3.4874 2.01632C3.91188 0.836323 4.33202 0.393826 4.33202 0.272876C4.33177 0.20552 4.30733 0.140582 4.26329 0.0903148C4.21926 0.0400472 4.15868 0.00792356 4.09298 -2.24914e-07C4.04994 0.00198176 4.00794 0.014063 3.97024 0.0352993C3.93254 0.0565357 3.90017 0.0863508 3.87566 0.122423C3.63142 0.49917 3.42006 0.896973 3.24401 1.31127C2.95425 1.97207 2.65146 2.9087 2.52687 4.543C2.41242 4.34683 2.12411 4.03265 1.84016 3.6167C1.48376 3.09455 1.31571 1.7582 1.29832 1.54433C1.28094 1.33045 1.23747 1.24933 1.06362 1.24933C0.889768 1.24933 0.834717 1.35995 0.834717 1.52515C0.885957 2.11739 1.00309 2.7018 1.18387 3.26713C1.33443 3.68204 1.5567 4.06619 1.84016 4.4014C2.19828 4.82578 2.45777 5.32693 2.59931 5.86755C2.69203 6.17583 2.80068 6.90006 3.03393 7.64641C3.23293 8.26402 3.47501 8.86637 3.75831 9.44886C3.29252 9.46541 2.83203 9.34397 2.4327 9.09928C1.87348 8.73791 1.81842 7.69508 1.80683 7.30863C1.80789 6.96542 1.83794 6.62294 1.89666 6.28498C1.92708 6.0711 1.93288 5.89263 1.68659 5.89263C1.35482 5.89263 1.36351 6.62276 1.35482 7.26586C1.34323 8.10513 1.45624 8.93998 1.99952 9.46656C2.67175 10.12 3.39178 10.0049 3.99301 10.2631C4.25725 10.3931 4.47907 10.598 4.63192 10.8531C4.8275 11.1318 5.27082 11.6496 6.01693 12.4756C4.84054 12.4387 4.22771 12.3281 3.52941 12.0891C2.89486 11.8782 2.7239 11.2498 2.69203 11.1569C2.63118 10.9858 2.58337 10.9121 2.4269 10.9121C2.36517 10.9166 2.30753 10.9452 2.26597 10.9919C2.22441 11.0386 2.20215 11.0998 2.2038 11.1628C2.2038 11.2572 2.44864 12.1393 3.50768 12.6098C4.24075 12.9372 4.73623 13.0139 6.12704 13.1437C6.24873 13.1555 6.83113 13.303 6.86735 13.3148C7.04265 13.3694 7.11365 13.4859 7.72213 13.9889C5.90973 13.4373 4.98252 13.6143 4.43923 13.6939C4.78259 14.6143 5.22156 15.3164 5.88799 15.5583C7.047 15.9698 8.06113 15.5155 8.06113 16.607C8.06113 16.8401 7.95827 17.318 7.95827 17.8151C7.95827 19.4095 8.97241 19.1027 8.97241 21.0424C8.97241 21.8389 9.36936 22.2755 9.96915 22.3359V22.3433H10.114V22.3359C10.7138 22.2755 11.1108 21.8389 11.1108 21.0424C11.1108 19.1027 12.1249 19.4095 12.1249 17.8151C12.1249 17.318 12.022 16.8401 12.022 16.607C12.022 15.5155 13.0362 15.9698 14.1952 15.5583C14.8631 15.3208 15.3035 14.6143 15.6439 13.6939C15.1021 13.6143 14.1749 13.4358 12.3611 13.9889C12.9695 13.4859 13.042 13.3694 13.2158 13.3148C13.2535 13.303 13.8359 13.1541 13.9561 13.1437C15.3469 13.0154 15.8395 12.9372 16.5755 12.6098C17.6302 12.1393 17.8794 11.2572 17.8794 11.1628C17.881 11.0998 17.8588 11.0386 17.8172 10.9919C17.7757 10.9452 17.718 10.9166 17.6563 10.9121C17.4998 10.9121 17.452 10.9858 17.3912 11.1569C17.3593 11.2484 17.1883 11.8782 16.5538 12.0891C15.8555 12.3222 15.2499 12.4387 14.0662 12.4756C14.8124 11.6481 15.2557 11.1289 15.4513 10.8531C15.6041 10.598 15.8259 10.3931 16.0902 10.2631C16.6914 10.0035 17.4114 10.1156 18.0837 9.46656C18.6269 8.93851 18.7399 8.10366 18.7284 7.26586C18.7197 6.62128 18.7284 5.89263 18.3966 5.89263C18.1503 5.89263 18.1561 6.0711 18.1865 6.28498C18.2452 6.62294 18.2753 6.96542 18.2763 7.30863C18.2648 7.69508 18.2083 8.73791 17.6505 9.09928C17.2511 9.34397 16.7907 9.46541 16.3249 9.44886C16.6082 8.86637 16.8503 8.26402 17.0492 7.64641C17.2825 6.89711 17.3897 6.17583 17.4824 5.86755Z" fill="#2C2938"/>
<path d="M1.79936 24.5455H1.26332L0 27.9734H0.488232L0.835938 26.9409H2.15431L2.50636 27.9734H3.00039L1.79936 24.5455ZM0.975017 26.5707L1.50092 25.075L2.01523 26.5707H0.975017Z" fill="#2C2938"/>
<path d="M3.69008 24.5455H3.2627V27.9734H3.69008V24.5455Z" fill="#2C2938"/>
<path d="M4.64931 24.5455H4.22192V27.9734H4.64931V24.5455Z" fill="#2C2938"/>
<path d="M16.7348 24.5455H16.3074V27.9734H16.7348V24.5455Z" fill="#2C2938"/>
<path d="M17.5853 24.5455H17.158V27.9734H17.5853V24.5455Z" fill="#2C2938"/>
<path d="M6.04143 27.7123C5.49814 27.7123 5.38224 27.2152 5.38224 26.8583H7.14103C7.14103 26.2845 7.10047 25.4246 6.05446 25.4246C5.14319 25.4246 4.93457 26.2653 4.93457 26.7727C4.93457 27.3465 5.16058 28.0575 6.05446 28.0575C6.30576 28.0707 6.5532 27.9904 6.7507 27.8317C6.9482 27.6729 7.08229 27.4465 7.128 27.1946H6.70641C6.66582 27.3427 6.57898 27.4733 6.45901 27.5667C6.33903 27.6601 6.19245 27.7112 6.04143 27.7123ZM6.05881 25.7948C6.67598 25.7948 6.73538 26.3966 6.73538 26.5412H5.38369C5.38224 26.4217 5.45757 25.7889 6.05881 25.7889V25.7948Z" fill="#2C2938"/>
<path d="M8.68257 25.4246C8.88974 25.4246 9.49532 25.4733 9.49532 26.2093V27.9793H9.06069V26.3258C9.06069 26.1783 9.03461 25.7948 8.5797 25.7948C8.40176 25.7952 8.23113 25.8669 8.10477 25.9945C7.97841 26.122 7.90648 26.2951 7.90458 26.4763V27.9734H7.49023V25.4659C7.49023 25.4659 7.68002 25.4777 7.88719 25.4659V25.8125C8.13203 25.547 8.33776 25.4246 8.68257 25.4246Z" fill="#2C2938"/>
<path d="M10.6646 26.8716H11.0905C11.1818 27.3332 11.315 27.6799 12.009 27.6799C12.4871 27.6799 12.8362 27.4999 12.8362 27.081C12.8362 26.1178 10.7761 26.8082 10.7761 25.4939C10.7761 24.5455 11.6845 24.4614 11.967 24.4614C12.2495 24.4614 13.239 24.5735 13.1854 25.5514H12.7508C12.7508 25.5514 12.7508 24.8656 11.9568 24.8656C11.3063 24.8656 11.2107 25.2874 11.2107 25.429C11.2107 26.3391 13.2825 25.6282 13.2825 27.0235C13.2825 27.7286 12.7508 28.0707 11.9641 28.0707C11.1774 28.0707 10.6646 27.6282 10.6646 26.8716Z" fill="#2C2938"/>
<path d="M14.7456 25.3936C14.2284 25.3936 13.6055 25.7815 13.6055 26.7786C13.6055 27.5855 14.0401 28.0678 14.7456 28.0678C15.4512 28.0678 15.8858 27.5766 15.8858 26.6459C15.8858 25.7152 15.2629 25.3936 14.7456 25.3936ZM14.7456 27.699C14.3183 27.699 14.0213 27.3686 14.0213 26.7314C14.0213 26.1503 14.3385 25.7624 14.7456 25.7624C15.0876 25.7624 15.4483 25.9866 15.4483 26.6828C15.4483 27.379 15.173 27.6976 14.7456 27.6976V27.699Z" fill="#2C2938"/>
<path d="M17.8386 25.4851H18.3109L18.9672 27.4808L19.6191 25.488H20.0755C20.0755 25.488 19.3337 27.6209 19.2236 27.9262C19.1512 28.1253 18.9571 28.6416 18.789 28.8112C18.7267 28.8745 18.6521 28.9239 18.5701 28.9564C18.4881 28.9889 18.4003 29.0037 18.3124 29C18.224 29.0072 18.1351 28.9951 18.0516 28.9646V28.5811C18.1293 28.6069 18.2104 28.6208 18.2921 28.6224C18.4181 28.6224 18.5282 28.6018 18.7441 28.0398C18.5065 27.3967 17.8386 25.4851 17.8386 25.4851Z" fill="#2C2938"/>
</g>
<defs>
<clipPath id="clip0_164_1248">
<rect width="20.0769" height="29" fill="white"/>
</clipPath>
</defs>
</svg>
