<svg width="75" height="17" viewBox="0 0 75 17" fill="none" xmlns="http://www.w3.org/2000/svg">
<path fill-rule="evenodd" clip-rule="evenodd" d="M3.54366 16.2752L0 0.978607H1.7894L3.61392 9.71439L5.33306 0.978607H7.15758L3.54366 16.2752ZM12.7712 14.9429H14.4904L11.6133 3.53954L8.66595 14.9429H10.35L10.7571 12.8721H12.3759L12.7712 14.9429Z" fill="black"/>
<path fill-rule="evenodd" clip-rule="evenodd" d="M11.0256 11.5042L11.5775 8.69698L12.1137 11.5042H11.0256Z" fill="white"/>
<path fill-rule="evenodd" clip-rule="evenodd" d="M17.5769 14.9429V3.68005L21.226 9.92516V4.24167H22.6294V15.6091L19.0506 9.39867V14.9429H17.5769ZM69.3276 14.9429V3.68005L72.9766 9.92516V4.24167H74.38V15.6091L70.8017 9.39867V14.9429H69.3276ZM31.4358 0.978607V6.34679H28.4182V0.978607H26.8041V14.9429H28.4182V8.10064H31.4358V14.9429H33.0496V0.978607H31.4358ZM38.7686 13.5738V10.1359H40.9791V8.69696H38.7686V5.71534H41.1188V4.24167H37.2945V14.9429H41.1188V13.5738H38.7686ZM62.9077 13.5738V10.1359H65.1178V8.69696H62.9077V5.71534H65.2574V4.24167H61.4336V14.9429H65.2574V13.5738H62.9077ZM47.3605 15.1181C49.3632 15.1181 49.6734 13.68 49.6734 12.2406V4.24167H48.2895V12.0307C48.2895 12.8374 48.1621 13.6093 47.3605 13.6093C46.5593 13.6093 46.4324 12.8374 46.4324 12.0307V4.24167H45.0484V12.2406C45.0484 13.6796 45.3587 15.1181 47.3605 15.1181ZM53.3115 14.4693V12.3464C53.3115 12.3464 54.1884 13.6796 55.136 13.6796C56.0836 13.6796 56.5039 12.9952 56.5039 12.2588C56.5039 11.5216 56.2063 10.9959 55.1534 10.2582C54.1012 9.52183 53.0305 8.99533 53.0305 7.10098C53.0305 5.2062 54.3818 4.17142 55.5922 4.17142C56.8027 4.17142 57.487 4.8909 57.487 4.8909V6.96089C57.487 6.96089 56.6977 5.64551 55.7327 5.64551C54.7674 5.64551 54.5045 6.62781 54.5045 7.01379C54.5045 7.39978 54.6451 8.06593 56.1005 9.04866C57.5569 10.0305 57.9432 10.9781 57.9432 11.9956C57.9432 13.3287 57.1184 15.1186 55.1889 15.1186C54.1181 15.1181 53.4693 14.6445 53.3115 14.4693Z" fill="black"/>
</svg>
