<svg width="51" height="18" viewBox="0 0 51 18" fill="none" xmlns="http://www.w3.org/2000/svg">
<path fill-rule="evenodd" clip-rule="evenodd" d="M6.40655 0.7982C3.15202 4.62024 0.0315444 9.3599 0.000254041 12.9026C-0.0119327 14.2356 0.413616 15.3993 1.43434 16.2807C2.90334 17.5501 4.52188 17.9977 6.13251 18.0003C8.4862 18.0036 10.8234 17.054 12.6534 16.3218C15.7354 15.0893 49.8033 0.294919 49.8033 0.294919C50.132 0.130233 50.0704 -0.0749645 49.6591 0.0274703C49.4931 0.0689712 12.5707 10.075 12.5707 10.075C11.8714 10.2728 11.1487 10.3762 10.4219 10.3826C7.58438 10.3994 5.05941 8.82434 5.07983 5.50526C5.08774 4.20654 5.48529 2.64038 6.40655 0.7982Z" fill="black"/>
</svg>
