<svg width="30" height="31" viewBox="0 0 30 31" fill="none" xmlns="http://www.w3.org/2000/svg">
<g clip-path="url(#clip0_164_1260)">
<path fill-rule="evenodd" clip-rule="evenodd" d="M3.36645 6.47704C2.47213 6.47704 0 5.91533 0 3.27414C0 0.632952 2.35355 0.0629578 3.30222 0.0629578C4.25089 0.0629578 5.26379 0.238594 5.85177 0.631293V1.86739C5.85364 1.88231 5.85232 1.89746 5.84792 1.91184C5.84352 1.92621 5.83612 1.93948 5.82623 1.95076C5.81634 1.96205 5.80417 1.97108 5.79055 1.97727C5.77692 1.98346 5.76214 1.98666 5.74718 1.98666C5.73223 1.98666 5.71745 1.98346 5.70382 1.97727C5.6902 1.97108 5.67803 1.96205 5.66814 1.95076C5.65825 1.93948 5.65085 1.92621 5.64645 1.91184C5.64205 1.89746 5.64073 1.88231 5.6426 1.86739C5.62942 1.65695 5.06945 0.392693 3.66621 0.420861C2.15756 0.450686 1.13807 1.64369 1.13807 3.21615C1.13807 4.7886 2.12627 6.13902 3.62339 6.09594C4.10925 6.08268 4.61158 5.93024 4.86028 5.72312V4.35447C4.86028 3.96178 4.62311 3.82093 4.38594 3.82093C4.35624 3.82093 4.32775 3.80906 4.30675 3.78793C4.28575 3.7668 4.27395 3.73814 4.27395 3.70826C4.27395 3.67838 4.28575 3.64972 4.30675 3.62859C4.32775 3.60746 4.35624 3.59559 4.38594 3.59559H6.43645C6.58962 3.59559 6.58962 3.83419 6.43645 3.82093C6.19928 3.82093 5.96212 3.96178 5.96212 4.35447V5.75957C5.45978 6.20861 4.25748 6.47538 3.36481 6.47538L3.36645 6.47704Z" fill="#231F20"/>
<path fill-rule="evenodd" clip-rule="evenodd" d="M17.2785 6.47704C18.1728 6.47704 19.3323 5.99984 19.9466 5.54915V4.38928C19.9466 4.23518 19.8495 4.20701 19.7935 4.40253C19.7375 4.59805 19.026 6.08931 17.5305 6.13074C16.035 6.17216 15.06 4.78198 15.06 3.20787C15.06 1.63376 16.0795 0.399326 17.5881 0.3695C18.9848 0.341332 19.5431 1.64867 19.5645 1.86076C19.5645 2.0016 19.7177 2.01486 19.7177 1.86076V0.624673C19.1314 0.231974 18.1679 -0.00828552 17.2176 -0.00828552C16.2673 -0.00828552 13.9236 0.624674 13.9236 3.26586C13.9236 5.90705 16.3941 6.46876 17.29 6.46876L17.2785 6.47704Z" fill="#231F20"/>
<path fill-rule="evenodd" clip-rule="evenodd" d="M29.8337 6.11085C29.5965 6.11085 29.3594 5.97001 29.3594 5.57731V0.89807C29.3594 0.505372 29.5965 0.36453 29.8337 0.36453C30.0709 0.36453 30.0577 0.154099 29.8337 0.154099H27.7799C27.5559 0.154099 27.5559 0.36453 27.7799 0.36453C28.0039 0.36453 28.2542 0.505372 28.2542 0.89807V5.57731C28.2542 5.97001 28.0171 6.11085 27.7799 6.11085C27.5427 6.11085 27.5559 6.39254 27.7799 6.39254H29.8321C30.056 6.39254 30.056 6.11085 29.8321 6.11085H29.8337Z" fill="#231F20"/>
<path fill-rule="evenodd" clip-rule="evenodd" d="M7.18582 0.36453C7.42298 0.36453 7.66015 0.505372 7.66015 0.89807V3.96841C7.66015 5.43813 8.80316 6.51846 10.264 6.51846C11.7249 6.51846 12.9108 5.43813 12.9108 3.96841L12.9388 0.89807C12.9388 0.505372 13.1759 0.36453 13.4131 0.36453C13.6503 0.36453 13.6371 0.154099 13.4131 0.154099H11.9885C11.7645 0.154099 11.7645 0.36453 11.9885 0.36453C12.2124 0.36453 12.4628 0.505372 12.4628 0.89807L12.5138 4.11588C12.5138 5.15313 11.6788 6.20364 10.6478 6.20364C10.1523 6.20365 9.67697 6.00607 9.32597 5.65419C8.97498 5.30231 8.77691 4.82482 8.77517 4.32631V0.899729C8.77517 0.50703 9.01233 0.366189 9.2495 0.366189C9.48667 0.366189 9.47349 0.155752 9.2495 0.155752H7.18582C6.96182 0.155752 6.96182 0.366189 7.18582 0.366189V0.36453Z" fill="#231F20"/>
<path fill-rule="evenodd" clip-rule="evenodd" d="M28.3545 21.9381C28.3531 23.4789 27.9613 24.9939 27.2162 26.34C26.4711 27.6861 25.3972 28.819 24.096 29.6315C22.7947 30.4441 21.3091 30.9096 19.7794 30.9841C18.2497 31.0586 16.7263 30.7396 15.3532 30.0572C13.9802 30.7392 12.457 31.0577 10.9275 30.9826C9.39811 30.9075 7.91296 30.4414 6.61244 29.6282C5.31192 28.815 4.23898 27.6816 3.49501 26.3352C2.75103 24.9887 2.3606 23.4736 2.3606 21.9331C2.3606 20.3926 2.75103 18.8776 3.49501 17.5311C4.23898 16.1846 5.31192 15.0513 6.61244 14.2381C7.91296 13.4249 9.39811 12.9587 10.9275 12.8837C12.457 12.8086 13.9802 13.1271 15.3532 13.8091C16.7265 13.1277 18.2497 12.8096 19.7791 12.8845C21.3086 12.9594 22.7938 13.425 24.0948 14.2374C25.3959 15.0498 26.4698 16.1821 27.2154 17.5277C27.9609 18.8732 28.3535 20.3877 28.3562 21.9282L28.3545 21.9381ZM26.5774 21.9381C26.5768 20.7952 26.3087 19.6684 25.7946 18.6492C25.2806 17.6299 24.5352 16.7468 23.6187 16.0714C22.7022 15.3959 21.6405 14.9471 20.5196 14.7614C19.3986 14.5756 18.2499 14.6581 17.1665 15.0021C18.5617 16.1753 19.5659 17.7506 20.0438 19.5156H18.1794C17.6549 18.024 16.6624 16.7445 15.3515 15.8703C14.0425 16.7453 13.0518 18.0247 12.5286 19.5156H10.6642C11.1498 17.7516 12.1567 16.1776 13.5514 15.0021C12.8416 14.7803 12.1024 14.6686 11.3592 14.6707C10.3164 14.6687 9.28553 14.8937 8.33731 15.3303C7.38909 15.7669 6.54599 16.4047 5.86587 17.2C5.18574 17.9952 4.6847 18.9291 4.39713 19.9376C4.10955 20.946 4.04225 22.0051 4.19985 23.0421C4.35745 24.0792 4.73622 25.0697 5.31015 25.9456C5.88409 26.8215 6.6396 27.5621 7.52484 28.1166C8.41009 28.6711 9.4041 29.0264 10.4387 29.158C11.4732 29.2896 12.5239 29.1945 13.5184 28.8791C12.609 28.1063 11.8617 27.1589 11.3202 26.0924C10.7787 25.0258 10.4538 23.8614 10.3644 22.6672H14.6466V24.4467L12.5615 24.4766C13.0966 25.9196 14.0721 27.1551 15.3482 28.0059C16.6251 27.1557 17.5995 25.9183 18.13 24.4732L16.0515 24.4467V22.6672H20.3337C20.239 23.8618 19.9087 25.0255 19.3621 26.0904C18.8155 27.1552 18.0635 28.0999 17.15 28.8692C18.2337 29.2153 19.3833 29.2995 20.5054 29.1151C21.6275 28.9306 22.6905 28.4827 23.6084 27.8075C24.5262 27.1324 25.2729 26.2491 25.7879 25.2293C26.3029 24.2095 26.5717 23.082 26.5725 21.9381H26.5774Z" fill="#231F20"/>
<path fill-rule="evenodd" clip-rule="evenodd" d="M24.2092 6.47704C25.1035 6.47704 26.263 5.99984 26.8773 5.54915V4.38928C26.8773 4.23518 26.7801 4.20701 26.7241 4.40253C26.6681 4.59805 25.9566 6.08931 24.4612 6.13074C22.9657 6.17216 21.9907 4.78198 21.9907 3.20787C21.9907 1.63376 23.0102 0.399326 24.5188 0.3695C25.9155 0.341332 26.4738 1.64867 26.4952 1.86076C26.4952 2.0016 26.6484 2.01486 26.6484 1.86076V0.624673C26.062 0.231974 25.0986 -0.00828552 24.1482 -0.00828552C23.1979 -0.00828552 20.8542 0.624674 20.8542 3.26586C20.8542 5.90705 23.3247 6.46876 24.2207 6.46876L24.2092 6.47704Z" fill="#231F20"/>
</g>
<defs>
<clipPath id="clip0_164_1260">
<rect width="30" height="31" fill="white"/>
</clipPath>
</defs>
</svg>
