<svg width="40" height="40" viewBox="0 0 40 40" fill="none" xmlns="http://www.w3.org/2000/svg">
<path fill-rule="evenodd" clip-rule="evenodd" d="M27.0651 9.19588C28.3207 8.56793 28.9651 8.66443 28.9813 9.29237C28.997 10.1135 28.8682 11.2084 28.7874 11.9973C28.3048 16.2805 27.5318 19.7744 27.4674 24.1862C29.5447 18.8082 31.2675 15.1049 33.5057 10.5161C34.2142 9.05082 34.6811 9.32454 35.2607 9.05082C37.5311 8.03628 37.6114 8.66422 37.3056 9.92011C36.2109 14.477 33.409 28.8877 32.9745 31.094C32.8456 31.7382 32.1372 31.4804 31.9761 31.2229C31.1388 30.1119 30.2369 30.0955 30.3334 29.3389C30.8489 25.6679 32.6846 16.3772 33.1515 14.1873C30.72 19.1463 28.2081 25.3778 26.9204 28.8877C26.6465 29.6285 26.1474 29.5804 25.8415 29.0328C25.3904 28.2436 24.5531 27.8574 24.4246 26.9557C23.9735 24.0733 24.9235 18.5667 25.0524 15.0727C23.7481 18.8726 21.5262 26.2794 20.56 29.6122C20.1577 30.9971 18.8213 30.7556 19.1755 29.4351C20.6565 23.8156 23.8288 13.9131 25.1972 10.3546C25.5193 9.50176 26.3724 9.55011 27.0651 9.19588ZM19.0464 8.5036C18.6115 8.40711 17.3556 9.0832 16.5828 9.19608C16.3414 9.26062 16.1159 9.50196 16.0356 9.69495C14.8114 12.5126 13.7168 15.1858 12.783 17.6007C11.3727 17.8593 9.96628 18.1385 8.56415 18.438C9.70736 15.5399 10.8508 12.6579 11.9616 9.90413C12.509 8.51958 11.0602 8.39071 10.4961 9.77547C9.77169 11.5628 8.40291 14.9277 6.88949 18.8408C5.77845 19.1145 4.57071 19.4204 3.34719 19.7908C2.44553 20.0322 2.41316 20.2735 2.79956 20.8214C3.02492 21.111 3.44369 21.0789 3.65307 21.3045C4.18452 21.8517 4.50659 22.512 5.45618 22.6085C4.58689 24.8627 3.74936 27.1653 3.00894 29.3712C2.52584 30.772 3.89441 31.0619 4.40968 29.5806C5.247 27.2137 6.13248 24.8146 7.05053 22.3829C7.80734 22.2221 9.62684 21.8357 11.3175 21.4491C9.98107 25.1524 9.11158 27.9381 8.75714 29.3067C8.69302 29.5642 8.82168 29.6931 8.86982 29.8217C9.30478 30.4659 9.7555 30.498 10.3351 31.3194C10.4801 31.545 11.0114 31.6574 11.2048 31.11C12.359 27.6061 13.5883 24.1274 14.8919 20.6763C15.3912 20.5474 16.2931 20.338 16.8403 19.5331C17.8065 18.0838 18.0804 18.3739 18.338 17.939C18.6277 17.3755 18.4183 16.8763 17.3879 16.9889C17.3879 16.9889 17.0013 17.0213 16.2607 17.1018C17.4199 14.1551 18.4508 11.6595 19.1591 9.74331C19.4004 9.0832 19.433 8.6001 19.0464 8.5036Z" fill="#C7232F"/>
<path fill-rule="evenodd" clip-rule="evenodd" d="M17.9136 26.8013C18.0811 26.5888 18.233 26.3695 18.3699 26.167C18.98 25.2643 18.3861 24.7337 17.7582 25.2651C17.6685 25.3475 17.5753 25.4373 17.4828 25.5307C17.3798 25.2086 17.2777 24.8863 17.1763 24.5637C17.4641 24.2109 17.7443 23.8488 17.9833 23.4778C18.9925 21.9127 17.0175 21.0143 16.1638 22.0289C15.7133 22.5603 15.826 23.0916 15.9546 23.5585C15.992 23.6988 16.0501 23.8992 16.1221 24.1424C15.809 24.4695 15.5062 24.8063 15.214 25.1522C14.2318 26.2796 14.5049 27.7312 15.5361 28.0506C16.1578 28.2434 16.7445 27.9624 17.2527 27.5142C17.2771 27.5781 17.3006 27.6389 17.3234 27.6966C17.5971 28.3729 18.4507 28.1635 18.1124 27.3423C18.058 27.2043 17.99 27.0186 17.9136 26.8013ZM16.5158 25.3826C16.5992 25.6455 16.689 25.9217 16.7787 26.1861C16.6664 26.2796 16.5525 26.3743 16.4377 26.4407C16.0385 26.6716 15.7453 26.4245 16.2605 25.7322C16.3448 25.6127 16.4311 25.4969 16.5158 25.3826ZM16.838 23.4109C16.8084 23.336 16.7914 23.2626 16.7758 23.2043C16.4869 22.1252 17.7237 22.4134 17.0981 23.1237C17.0092 23.2244 16.9285 23.324 16.838 23.4109Z" fill="#C7232F"/>
</svg>
