<svg width="54" height="29" viewBox="0 0 54 29" fill="none" xmlns="http://www.w3.org/2000/svg">
<g clip-path="url(#clip0_164_1269)">
<path d="M28.9901 1.31172C28.8142 1.33893 28.645 1.98864 28.3049 2.3271C28.0562 2.57137 27.7457 2.55608 27.5808 2.85807C27.5182 2.97089 27.5385 3.16347 27.4674 3.34838C27.3287 3.71819 26.8397 3.75125 26.8397 4.15419C26.838 4.58933 27.2475 4.67244 27.6019 4.98119C27.8786 5.22972 27.9056 5.40105 28.2406 5.52148C28.5266 5.61908 28.9521 5.30011 29.3353 5.41463C29.65 5.50882 29.9511 5.57664 30.0222 5.90067C30.0848 6.19925 30.018 6.66234 29.6365 6.60895C29.5078 6.59452 28.9504 6.4062 28.2652 6.47914C27.4386 6.57333 26.4954 6.84384 26.4032 7.76765C26.3524 8.2842 26.9894 8.89323 27.6045 8.76939C28.0299 8.68537 27.8286 8.18246 28.0604 7.93813C28.3641 7.62518 30.0848 9.03064 31.6845 9.03064C32.3579 9.03064 32.8587 8.86017 33.3562 8.33765C33.4026 8.29777 33.4593 8.21211 33.5312 8.20699C33.5989 8.21211 33.7173 8.27908 33.7563 8.30794C35.0447 9.34615 36.0183 11.4286 40.7532 11.4532C41.419 11.4565 42.1777 11.7755 42.797 12.3421C43.3494 12.8545 43.6726 13.6509 43.9864 14.4593C44.4602 15.6723 45.3095 16.8522 46.597 18.1652C46.6673 18.2356 47.7272 19.0618 47.8118 19.1237C47.8254 19.1322 47.9032 19.3188 47.8762 19.4231C47.8449 20.2103 47.7306 22.4996 49.4327 22.6031C49.8489 22.6243 49.7397 22.3308 49.7397 22.1289C49.739 21.7303 49.6661 21.3341 49.876 20.9262C50.1627 20.3647 49.2678 20.1059 49.294 18.8921C49.3126 17.9871 48.5546 18.1414 48.1697 17.4518C47.948 17.0523 47.7509 16.8403 47.7653 16.3516C47.8516 13.6018 47.1816 11.795 46.8474 11.3514C46.5869 11.0163 46.3712 10.8832 46.6097 10.7279C48.0301 9.78726 48.3524 8.91186 48.3524 8.91186C49.1078 7.13146 49.7872 5.50535 50.7236 4.78952C50.9123 4.64188 51.3962 4.27974 51.6931 4.1372C52.567 3.7241 53.0272 3.47392 53.281 3.22618C53.6828 2.83347 54 2.01494 53.6151 1.51873C53.1363 0.906285 52.3081 1.39233 51.9427 1.60945C49.3312 3.16347 48.9463 5.90487 48.0419 7.47924C47.3203 8.73712 46.147 9.66086 45.098 9.73636C44.3113 9.79487 43.4636 9.63542 42.6194 9.2639C40.5662 8.3614 39.4428 7.19594 39.178 6.98984C38.6264 6.56316 34.3442 2.34828 30.8749 2.1761C30.8749 2.1761 30.4444 1.31178 30.336 1.29735C30.0822 1.26508 29.8226 1.8139 29.6365 1.87758C29.4613 1.93603 29.167 1.28292 28.9901 1.31178M13.7172 26.4677C13.3907 26.46 13.1132 26.1911 13.1132 25.8586L13.1141 15.0081H9.5475V26.9689C9.5475 27.5551 10.0212 28.0335 10.6024 28.0335H16.8363C17.4216 28.0335 17.8895 27.5551 17.8895 26.9689V15.0081H14.3263L14.3229 25.8586C14.3229 26.1911 14.0454 26.46 13.7172 26.4677ZM25.6587 15.0081H20.2607C19.622 15.0081 19.1017 15.5289 19.1017 16.1761V28.0334H22.6716V17.1567C22.6741 16.8234 22.9431 16.5596 23.2748 16.5596C23.6081 16.5596 23.8754 16.8174 23.883 17.1474V28.0335H27.4386V17.1473C27.4428 16.8173 27.7101 16.5595 28.0426 16.5595C28.3725 16.5595 28.6449 16.8233 28.6475 17.1566V28.0335H32.2174V16.1761C32.2174 15.5289 31.6963 15.0081 31.0576 15.0081H25.6587ZM4.77457 17.1795C4.77712 16.8173 4.48274 16.5595 4.17057 16.5595H3.56487V23.1477H4.17057C4.48529 23.1477 4.77718 22.8966 4.77457 22.5361V17.1795ZM7.1678 24.7601H3.56487V28.0335H0V15.0081H7.1907C7.83441 15.0081 8.33689 15.5323 8.33689 16.1812V23.5871C8.33689 24.2368 7.81498 24.7601 7.1678 24.7601ZM44.4509 25.1206C43.7343 25.1206 43.1328 25.7415 43.1328 26.494C43.1328 27.2489 43.7343 27.8647 44.4737 27.8647C45.2072 27.8647 45.801 27.2489 45.801 26.494C45.801 25.7398 45.2072 25.1206 44.4736 25.1206H44.4509ZM46.0565 26.4897C46.0565 27.3744 45.3492 28.0937 44.4737 28.0937C43.5888 28.0937 42.8782 27.3795 42.8782 26.4897C42.8782 25.6168 43.5888 24.8874 44.4475 24.8874C45.3492 24.8874 46.0565 25.5949 46.0565 26.4897Z" fill="#FF2727"/>
<path d="M44.3086 26.3879C44.5565 26.3879 44.6868 26.2997 44.6868 26.1233C44.6868 25.9663 44.5607 25.8858 44.3196 25.8858H44.2486V26.3879H44.3086ZM45.2215 27.4176H44.7959L44.2486 26.6873V27.4176H43.9009V25.5711H44.2664C44.763 25.5711 45.0268 25.7594 45.0268 26.119C45.0268 26.359 44.8712 26.572 44.6538 26.6356L44.6284 26.645L45.2215 27.4176ZM38.2025 23.1502V17.1525C38.194 16.8208 37.9276 16.5663 37.5951 16.5663C37.266 16.5663 36.9936 16.8309 36.9911 17.1618V23.1502H38.2025ZM38.2025 28.0335V24.7636H36.9911V28.0335H33.428V16.1761C33.428 15.5289 33.9482 15.0081 34.5869 15.0081H40.6067C41.2471 15.0081 41.7674 15.5289 41.7674 16.1761V28.0334L38.2025 28.0335Z" fill="#FF2727"/>
</g>
<defs>
<clipPath id="clip0_164_1269">
<rect width="54" height="29" fill="white"/>
</clipPath>
</defs>
</svg>
