<svg width="65" height="28" viewBox="0 0 65 28" fill="none" xmlns="http://www.w3.org/2000/svg">
<g clip-path="url(#clip0_164_1286)">
<path d="M61.666 26.8024L52.0358 0.0236132L52.0292 0.00588799H51.8392L49.8561 5.50883L46.2458 15.5271L46.2374 15.5192C44.9861 14.404 43.2208 13.707 40.9975 13.4474L40.3194 13.3767L40.9921 13.2896C44.6585 12.6242 47.123 10.2855 47.123 7.46786C47.123 3.60403 43.5248 0.907114 38.3707 0.907114H27.6466V1.10275H30.7627V21.0679L23.1948 0.0235475L23.188 0.00588799H22.9979L21.0148 5.50883L13.3659 26.7335L13.3189 26.739C13.1882 26.7553 13.0589 26.7682 12.931 26.778C12.7386 26.7932 12.5473 26.8023 12.3554 26.8023H4.62689L19.3177 1.10268L19.4269 0.909543H1.45944V8.85961H1.65009C1.68389 4.98725 3.91677 1.10268 8.85014 1.10268H14.8019L0 26.9949H19.941V19.3782H19.7503C19.7243 22.7533 17.83 25.9591 13.7105 26.6829L13.5795 26.7055L16.7168 17.9962H25.5054L28.6721 26.8024H25.5482V26.995H37.8095V26.8024H34.6722V13.5187H38.2922C41.9761 13.5187 44.0889 15.1809 44.0889 18.0777V20.4341C44.0889 20.6937 44.1064 21.0733 44.1257 21.3908V21.4023L42.18 26.8012H39.6382V26.9937H44.8997V26.8012H42.3852L44.1571 21.885C44.1607 21.9325 44.1626 21.9611 44.1626 21.9611L44.2114 22.4041L44.2585 22.6972C44.5541 24.51 45.2406 25.8426 46.2983 26.6579L46.4504 26.7695C47.254 27.3337 48.2525 27.6195 49.4199 27.6195C50.9662 27.6195 51.9973 27.2301 52.8486 26.3137L52.737 26.2076C51.9526 26.9388 51.2944 27.235 50.4697 27.235C49.0645 27.235 48.3291 25.5136 48.3291 23.816V20.5145C48.3366 19.6953 48.2096 18.8806 47.9532 18.1034L47.9183 18.001V17.9973H54.3465L57.5133 26.8036H54.3894V26.9961H65V26.8036L61.666 26.8024ZM16.7868 17.8036L21.1162 5.7904L25.436 17.8036H16.7868ZM34.6741 13.3255V1.10268H37.4373C41.1284 1.10268 43.0771 3.31885 43.0771 7.50935C43.0771 11.966 41.9585 13.3255 38.2922 13.3255H34.6741ZM47.8434 17.8036L47.8247 17.7561C47.539 17.0534 47.1231 16.4122 46.5993 15.8671L46.4183 15.6843L46.399 15.666L49.955 5.7904L54.2747 17.8036H47.8434Z" fill="black"/>
</g>
<defs>
<clipPath id="clip0_164_1286">
<rect width="65" height="27.625" fill="white"/>
</clipPath>
</defs>
</svg>
