<svg width="24" height="24" viewBox="0 0 24 24" fill="none" xmlns="http://www.w3.org/2000/svg">
<path d="M5.10571 18.8943C4.24283 18.0314 4.81514 16.2198 4.37595 15.1584C3.92066 14.058 2.25 13.1723 2.25 12C2.25 10.8276 3.92067 9.942 4.37595 8.84164C4.81515 7.78015 4.24283 5.96858 5.10571 5.10571C5.96858 4.24283 7.78016 4.81514 8.84165 4.37595C9.94203 3.92066 10.8277 2.25 12 2.25C13.1724 2.25 14.058 3.92067 15.1584 4.37595C16.2199 4.81515 18.0314 4.24283 18.8943 5.10571C19.7572 5.96858 19.1849 7.78016 19.6241 8.84165C20.0793 9.94203 21.75 10.8277 21.75 12C21.75 13.1724 20.0793 14.058 19.624 15.1584C19.1848 16.2199 19.7572 18.0314 18.8943 18.8943C18.0314 19.7572 16.2198 19.1849 15.1584 19.6241C14.058 20.0793 13.1723 21.75 12 21.75C10.8276 21.75 9.942 20.0793 8.84164 19.624C7.78015 19.1848 5.96858 19.7572 5.10571 18.8943Z" stroke="#1C1C1C" stroke-width="1.2" stroke-linecap="round" stroke-linejoin="round"/>
<path d="M12 18C12.6213 18 13.125 17.4963 13.125 16.875C13.125 16.2537 12.6213 15.75 12 15.75C11.3787 15.75 10.875 16.2537 10.875 16.875C10.875 17.4963 11.3787 18 12 18Z" fill="#1C1C1C"/>
<path d="M12 13.5004V12.7504C12.5192 12.7504 13.0267 12.5965 13.4584 12.308C13.8901 12.0196 14.2265 11.6096 14.4252 11.13C14.6239 10.6503 14.6758 10.1225 14.5746 9.61332C14.4733 9.10412 14.2233 8.63639 13.8562 8.26927C13.489 7.90216 13.0213 7.65215 12.5121 7.55087C12.0029 7.44958 11.4751 7.50156 10.9955 7.70024C10.5158 7.89892 10.1058 8.23538 9.81739 8.66706C9.52895 9.09874 9.375 9.60625 9.375 10.1254" stroke="#1C1C1C" stroke-width="1.2" stroke-linecap="round" stroke-linejoin="round"/>
</svg>
