<svg width="58" height="66" viewBox="0 0 58 66" fill="none" xmlns="http://www.w3.org/2000/svg">
<g clip-path="url(#clip0_105_170)">
<path d="M28.1 65.8C27.2 65.8 26.3 65.7 25.3 65.6C21.8 65.1 18.3 63.8 15 62.5C13.7 62 12.4 61.5 11.1 61C7.5 59.8 4.7 59.2 2.2 59.2C1.6 59.2 1.1 59.2 0.5 59.3C0.3 59.3 0.2 59.2 0.1 59.2C0 59.1 0 58.9 0 58.8C0.7 52.6 2 45.7 3.7 39.3C5.2 33.8 6.7 29.3 8 26.9L8.1 26.7V26.5C7.8 25.2 7.5 23.8 7.2 22.5C6.4 19 5.6 15.3 5.4 13.3C5.4 13 5.3 12.7 5.3 12.4C5.3 12.3 5.3 12.1 5.4 12.1C5.5 12.1 5.6 11.9 5.7 11.9C6 11.9 6.2 12.1 6.2 12.3C6.2 12.7 6.2 13 6.3 13.2C6.5 15.2 7.3 18.8 8.1 22.3L8.2 22.6C8.4 23.7 8.7 24.8 8.9 25.8L9 26.2H28.4L28.5 25.8C28.8 24.6 29 23.4 29.3 22.2C30.1 18.8 30.9 15.2 31.1 13.3C31.4 10.6 31.2 4.1 31.1 1.5V1H28.5V3.5C28.5 8.9 24.1 13.4 18.8 13.4C16.2 13.4 13.7 12.4 11.9 10.6C10 8.7 9 6.2 9 3.6V1H6.3V1.5C6.3 2.7 6.2 5.7 6.2 8.5C6.2 8.7 6 9 5.7 9C5.4 9 5.2 8.7 5.2 8.5C5.2 5.6 5.3 2.4 5.3 1.1C5.4 0.5 5.9 0 6.5 0H8.8C9.4 0 9.9 0.5 9.9 1.1V3.6C9.9 5.9 10.8 8.1 12.5 9.8C14.2 11.5 16.4 12.4 18.7 12.4C23.6 12.4 27.5 8.4 27.5 3.5V1.1C27.5 0.5 28 0 28.6 0H30.9C31.5 0 32 0.5 32 1.1C32.1 3.2 32.3 10.5 32 13.4C31.8 15.4 31 19 30.2 22.4C29.9 23.7 29.6 25.1 29.3 26.4V26.6L29.4 26.8C31 29.7 33.2 36.3 34.9 43.5C35 43.8 34.8 44 34.5 44.1H34.4C34.2 44.1 34 43.9 33.9 43.7C32.3 36.6 30.2 30.4 28.6 27.5L28.5 27.2H23.3L23.4 27.8C23.7 29.6 24.1 32.2 24.5 35.5C24.5 35.8 24.3 36 24.1 36C23.8 36 23.6 35.8 23.6 35.6C23.2 32.1 22.8 29.4 22.4 27.6L22.3 27.2H15.3L15.2 27.6C14.8 29.3 14.4 32.1 14 35.6C14 35.8 13.8 36 13.5 36C13.2 36 13 35.7 13 35.5C13.4 32.3 13.8 29.6 14.1 27.8L14.2 27.2H9L8.9 27.5C6.4 32 2.7 44.9 1.1 57.8L1 58.3H1.6C1.8 58.3 2 58.3 2.2 58.3C4.8 58.3 7.8 58.9 11.5 60.2C12.9 60.7 14.2 61.2 15.5 61.7C18.8 63 22.2 64.3 25.6 64.7C26.5 64.8 27.4 64.9 28.2 64.9C31.5 64.9 34.3 64 36.8 62.2L37 62V61.7C36.9 60.3 36.7 58.9 36.5 57.4L36.4 57H22.8C22.5 57 22.1 56.9 21.9 56.6C21.7 56.4 21.5 56 21.5 55.7C21.5 54.6 21.8 52.4 23.2 50.3C24.9 47.7 27.7 46 31.5 45.2C31.6 45.2 31.7 45.2 31.8 45.2C32.3 45.2 32.7 45.5 32.9 45.9C34.1 48.6 35.6 48.6 36.1 48.6C39.4 48.6 42.7 42.4 44.4 38.7C46.4 34.3 48.6 31.3 52.5 31.3C55.1 31.3 57 35 57 40C57 41.9 56.3 43.4 55.6 44.9C54.9 46.3 54.3 47.5 54.3 49.1V55.8C54.3 56.5 53.7 57.1 53 57.1H51.4C50.7 57.1 50.1 56.5 50.1 55.8V49.1C50.1 47.1 50 45.7 49.9 45L49.8 44.4L49.3 44.6C48.1 45 46.5 46.3 44.9 48C42.6 50.5 40.8 53.3 39.9 55.9C39.7 56.5 39.1 56.9 38.5 56.9H37.3L37.4 57.5C37.6 59.1 37.8 60.6 37.9 62.1C37.9 62.3 37.8 62.4 37.7 62.5C35 64.7 31.8 65.8 28.1 65.8ZM50.1 43.5C50.2 43.5 50.4 43.6 50.4 43.6C51 44.3 51.2 46.2 51.2 49V56H53.4V49C53.4 47.2 54.1 45.8 54.8 44.4C55.5 43 56.1 41.6 56.1 39.9C56.1 35.1 54.3 32.2 52.5 32.2C49.4 32.2 47.6 34 45.3 39C42.2 45.9 39 49.5 36.1 49.5C34.4 49.5 33.1 48.5 32.1 46.4L32 46L31.6 46.1C23.8 47.9 22.6 53.3 22.5 55.5V56H38.8L39 55.6C39.9 52.9 41.8 49.9 44.2 47.3C46 45.5 48.4 43.5 50.1 43.5Z" fill="white"/>
<path d="M46 29.3C45.6 29.3 45.3 29.1 45 28.9L34.3 16.9C34 16.5 33.9 16 34.1 15.5L35.1 13.2C35.2 13 35.3 12.9 35.5 12.9C35.6 12.9 35.6 12.9 35.7 12.9C35.9 13 36.1 13.3 36 13.5L35.3 15.1H41.7L42.6 8.7H38L37.5 9.8C37.4 10 37.3 10.1 37.1 10.1C37 10.1 37 10.1 36.9 10.1C36.8 10 36.7 10 36.6 9.8C36.5 9.6 36.6 9.6 36.6 9.4L37 8.6C37.2 8.1 37.7 7.8 38.2 7.8H53.8C54.3 7.8 54.8 8.1 55 8.6L57.9 15.4C58.1 15.9 58 16.4 57.7 16.8L47 28.8C46.7 29.1 46.4 29.3 46 29.3ZM46 27.6L47.9 21.4C48 21.2 48.1 21.1 48.4 21.1H48.5C48.8 21.2 48.9 21.4 48.8 21.7L47.7 25.2L48.6 25.7L57.1 16.2H50.5L50.4 16.6C50.4 16.7 50.4 16.7 50.4 16.7L50.1 17.8C50 18 49.9 18.1 49.6 18.1H49.5C49.2 18 49.1 17.8 49.2 17.5L49.6 16.1H42.6L46 27.6ZM43.4 25.6L44.3 25.1L41.7 16.6V16.5L41.6 16.1H35L43.4 25.6ZM50.3 15.1H56.7L54 8.7H49.4L50.3 15.1ZM42.6 15.1H49.3L48.4 8.7H43.6L42.6 15.1Z" fill="white"/>
</g>
<defs>
<clipPath id="clip0_105_170">
<rect width="58" height="65.8" fill="white"/>
</clipPath>
</defs>
</svg>
