<svg width="24" height="24" viewBox="0 0 24 24" fill="none" xmlns="http://www.w3.org/2000/svg">
<g clip-path="url(#clip0_82_923)">
<path d="M21 4.9125C20.775 4.9125 20.5875 4.725 20.5875 4.5V2.175C20.5875 1.725 20.25 1.35 19.8375 1.35H19.1625C18.7125 1.35 18.3375 1.725 18.3375 2.175V4.4625C18.3375 4.6875 18.15 4.875 17.925 4.875C17.7 4.875 17.5125 4.6875 17.5125 4.4625V2.175C17.5125 1.275 18.2625 0.525002 19.1625 0.525002H19.8375C20.7 0.525002 21.4125 1.275 21.4125 2.175V4.5C21.4125 4.725 21.225 4.9125 21 4.9125Z" fill="black"/>
<path d="M23.6249 18.9375C23.3999 18.9375 23.2124 18.75 23.2124 18.525V6.1125C23.2124 5.4 22.6499 4.875 21.9749 4.875H8.51235C8.28735 4.875 8.09985 4.6875 8.09985 4.4625C8.09985 4.2375 8.28735 4.05 8.51235 4.05H21.9749C23.0999 4.05 24.0374 4.9875 24.0374 6.1125V18.525C24.0374 18.75 23.8499 18.9375 23.6249 18.9375Z" fill="black"/>
<path d="M15.6374 18.9375C15.3749 18.9375 15.2249 18.75 15.2249 18.525C15.2999 17.025 15.5999 14.1375 16.0874 12.8625C16.2374 12.4875 16.1624 12.0375 15.9374 11.7C15.7124 11.3625 15.3374 11.175 14.9624 11.175H8.51235C8.28735 11.175 8.09985 10.9875 8.09985 10.7625C8.09985 10.5375 8.28735 10.35 8.51235 10.35H14.9249C15.5999 10.35 16.1999 10.65 16.5749 11.2125C16.9499 11.775 17.0624 12.4875 16.8374 13.125C16.3874 14.325 16.1249 17.2125 16.0499 18.5625C16.0499 18.75 15.8624 18.9375 15.6374 18.9375Z" fill="black"/>
<path d="M6.8623 12.675H4.0498C2.9248 12.675 1.9873 11.7375 1.9873 10.6125V4.6125C1.9873 3.4875 2.9248 2.55 4.0498 2.55H6.8623C7.9873 2.55 8.9248 3.4875 8.9248 4.6125V10.6125C8.9248 11.7375 7.9873 12.675 6.8623 12.675ZM4.0498 3.375C3.3373 3.375 2.8123 3.9375 2.8123 4.6125V10.6125C2.8123 11.325 3.3748 11.85 4.0498 11.85H6.8623C7.5748 11.85 8.0998 11.2875 8.0998 10.6125V4.6125C8.0998 3.9 7.5373 3.375 6.8623 3.375H4.0498Z" fill="black"/>
<path d="M5.475 16.95C5.25 16.95 5.0625 16.7625 5.0625 16.5375V12.2625C5.0625 12.0375 5.25 11.85 5.475 11.85C5.7 11.85 5.8875 12.0375 5.8875 12.2625V16.5375C5.8875 16.7625 5.7 16.95 5.475 16.95Z" fill="black"/>
<path d="M23.625 8.025H14.925C14.7 8.025 14.5125 7.8375 14.5125 7.6125C14.5125 7.3875 14.7 7.2 14.925 7.2H23.625C23.85 7.2 24.0375 7.3875 24.0375 7.6125C24.0375 7.8375 23.85 8.025 23.625 8.025Z" fill="black"/>
<path d="M20.8124 12.2625C20.5874 12.2625 20.3999 12.075 20.3999 11.85V11.1375C20.3999 10.9125 20.5874 10.725 20.8124 10.725C21.0374 10.725 21.2249 10.9125 21.2249 11.1375V11.85C21.2249 12.075 21.0374 12.2625 20.8124 12.2625Z" fill="black"/>
<path d="M20.8124 14.5125C20.5874 14.5125 20.3999 14.325 20.3999 14.1V13.3875C20.3999 13.1625 20.5874 12.975 20.8124 12.975C21.0374 12.975 21.2249 13.1625 21.2249 13.3875V14.1C21.2249 14.325 21.0374 14.5125 20.8124 14.5125Z" fill="black"/>
<path d="M20.8124 16.7625C20.5874 16.7625 20.3999 16.575 20.3999 16.35V15.6375C20.3999 15.4125 20.5874 15.225 20.8124 15.225C21.0374 15.225 21.2249 15.4125 21.2249 15.6375V16.35C21.2249 16.575 21.0374 16.7625 20.8124 16.7625Z" fill="black"/>
<path d="M21.9749 23.475H2.0249C0.899902 23.475 -0.0375977 22.5375 -0.0375977 21.4125C-0.0375977 19.575 1.4624 18.075 3.2999 18.075H23.6249C23.8499 18.075 24.0374 18.2625 24.0374 18.4875V21.4125C24.0374 22.575 23.1374 23.475 21.9749 23.475ZM3.2999 18.9C1.9124 18.9 0.787402 20.025 0.787402 21.4125C0.787402 22.125 1.3499 22.65 2.0249 22.65H21.9749C22.6874 22.65 23.2124 22.125 23.2124 21.4125V18.9H3.2999Z" fill="black"/>
</g>
<defs>
<clipPath id="clip0_82_923">
<rect width="24" height="24" fill="white"/>
</clipPath>
</defs>
</svg>
