<svg width="24" height="24" viewBox="0 0 24 24" fill="none" xmlns="http://www.w3.org/2000/svg">
<path d="M12 15C14.0711 15 15.75 13.3211 15.75 11.25C15.75 9.17893 14.0711 7.5 12 7.5C9.92893 7.5 8.25 9.17893 8.25 11.25C8.25 13.3211 9.92893 15 12 15Z" stroke="#1C1C1C" stroke-width="1.2" stroke-miterlimit="10"/>
<path d="M5.9812 18.6913C6.54615 17.5806 7.40744 16.6478 8.46973 15.9963C9.53202 15.3448 10.7539 15 12 15C13.2462 15 14.468 15.3448 15.5303 15.9963C16.5926 16.6478 17.4539 17.5806 18.0189 18.6913" stroke="#1C1C1C" stroke-width="1.2" stroke-linecap="round" stroke-linejoin="round"/>
<path d="M16.5 5.25H21" stroke="#1C1C1C" stroke-width="1.2" stroke-linecap="round" stroke-linejoin="round"/>
<path d="M18.75 3V7.5" stroke="#1C1C1C" stroke-width="1.2" stroke-linecap="round" stroke-linejoin="round"/>
<path d="M20.8888 10.5804C21.1867 12.4559 20.8831 14.3776 20.0215 16.07C19.16 17.7623 17.7847 19.1384 16.0928 20.0009C14.4009 20.8634 12.4794 21.1681 10.6037 20.8712C8.72803 20.5744 6.99451 19.6912 5.65169 18.3484C4.30887 17.0056 3.42572 15.272 3.12885 13.3964C2.83199 11.5207 3.13666 9.59914 3.99919 7.90728C4.86172 6.21542 6.2378 4.84012 7.93015 3.97855C9.62249 3.11697 11.5442 2.81339 13.4197 3.11131" stroke="#1C1C1C" stroke-width="1.2" stroke-linecap="round" stroke-linejoin="round"/>
</svg>
