<svg width="9" height="24" viewBox="0 0 9 24" fill="none" xmlns="http://www.w3.org/2000/svg">
<path d="M9 21.835L6.876 21.091L6.876 17.323L9 16.579L9 15.331L0.12 18.475L0.12 19.951L9 23.083L9 21.835ZM1.464 19.207L5.82 17.683L5.82 20.731L1.464 19.207ZM9 12.8071L5.628 12.8071C4.2 12.8071 3.612 12.1831 3.612 11.0791C3.612 10.8031 3.648 10.5031 3.648 10.5031L2.556 10.5031C2.556 10.5031 2.52 10.7671 2.52 11.0431C2.52 12.0031 2.952 12.4951 3.432 12.7591L3.432 12.8071L2.64 12.8071L2.64 13.9471L9 13.9471L9 12.8071ZM9 8.10789L5.436 8.10789C4.572 8.10789 3.504 7.71189 3.504 6.60789C3.504 5.74389 4.152 5.29989 5.088 5.29989L9 5.29989L9 4.15989L5.436 4.15989C4.56 4.15989 3.504 3.76389 3.504 2.65989C3.504 1.80789 4.14 1.35189 5.088 1.35189L9 1.35189L9 0.21189L5.028 0.21189C3.564 0.21189 2.52 0.97989 2.52 2.35989C2.52 3.40389 3.084 4.02789 3.78 4.37589L3.78 4.38789C3 4.71189 2.52 5.37189 2.52 6.30789C2.52 7.39989 3.204 7.86789 3.564 8.05989L3.564 8.10789L2.64 8.10789L2.64 9.24789L9 9.24789L9 8.10789Z" fill="black"/>
</svg>
