<svg width="84" height="84" viewBox="0 0 84 84" fill="none" xmlns="http://www.w3.org/2000/svg">
<path d="M33.6699 56L38.9199 61.25L50.2949 50.75" stroke="#292D32" stroke-width="3.5" stroke-linecap="round" stroke-linejoin="round"/>
<path d="M30.835 7L18.165 19.705" stroke="#292D32" stroke-width="3.5" stroke-miterlimit="10" stroke-linecap="round" stroke-linejoin="round"/>
<path d="M53.165 7L65.835 19.705" stroke="#292D32" stroke-width="3.5" stroke-miterlimit="10" stroke-linecap="round" stroke-linejoin="round"/>
<path d="M7 27.475C7 21 10.465 20.475 14.77 20.475H69.23C73.535 20.475 77 21 77 27.475C77 35 73.535 34.475 69.23 34.475H14.77C10.465 34.475 7 35 7 27.475Z" stroke="#292D32" stroke-width="3.5"/>
<path d="M12.25 35L17.185 65.24C18.305 72.03 21 77 31.01 77H52.115C63 77 64.61 72.24 65.87 65.66L71.75 35" stroke="#292D32" stroke-width="3.5" stroke-linecap="round"/>
</svg>
