<svg width="25" height="25" viewBox="0 0 25 25" fill="none" xmlns="http://www.w3.org/2000/svg">
<path d="M18.3327 5.53124L12.4473 2.36458C11.8223 2.03124 11.0827 2.03124 10.4577 2.36458L4.58268 5.53124C4.1556 5.77083 3.88477 6.22916 3.88477 6.72916C3.88477 7.23958 4.14518 7.69791 4.58268 7.92708L10.4681 11.0937C10.7806 11.2604 11.1243 11.3437 11.4577 11.3437C11.791 11.3437 12.1452 11.2604 12.4473 11.0937L18.3327 7.92708C18.7598 7.69791 19.0306 7.23958 19.0306 6.72916C19.0306 6.22916 18.7598 5.77083 18.3327 5.53124Z" fill="#1C1C1C"/>
<path d="M9.49967 12.1979L4.03092 9.46875C3.60384 9.25 3.12467 9.28125 2.71842 9.52084C2.32259 9.77084 2.08301 10.1979 2.08301 10.6667V15.8333C2.08301 16.7292 2.58301 17.5313 3.38509 17.9375L8.85384 20.6667C9.04134 20.7604 9.24967 20.8125 9.45801 20.8125C9.69759 20.8125 9.94759 20.7396 10.1663 20.6146C10.5622 20.3646 10.8018 19.9375 10.8018 19.4688V14.3021C10.7913 13.4063 10.2913 12.6042 9.49967 12.1979Z" fill="#1C1C1C"/>
<path d="M20.8333 10.6667V13.2292C20.3333 13.0833 19.8021 13.0208 19.2708 13.0208C17.8542 13.0208 16.4687 13.5104 15.375 14.3854C13.875 15.5625 13.0208 17.3438 13.0208 19.2708C13.0208 19.7813 13.0833 20.2917 13.2187 20.7813C13.0625 20.7604 12.9062 20.6979 12.7604 20.6042C12.3646 20.3646 12.125 19.9375 12.125 19.4688V14.3021C12.125 13.4063 12.625 12.6042 13.4167 12.1979L18.8854 9.46875C19.3125 9.25 19.7917 9.28125 20.1979 9.52084C20.5937 9.77084 20.8333 10.1979 20.8333 10.6667Z" fill="#1C1C1C"/>
<path d="M22.8955 16.3021C22.0413 15.25 20.7393 14.5833 19.2705 14.5833C18.1663 14.5833 17.1455 14.9687 16.3434 15.6146C15.2601 16.4687 14.583 17.7917 14.583 19.2708C14.583 20.7396 15.2497 22.0417 16.3018 22.8958C17.1038 23.5625 18.1455 23.9583 19.2705 23.9583C20.458 23.9583 21.5309 23.5104 22.3643 22.7917C23.333 21.9271 23.958 20.6771 23.958 19.2708C23.958 18.1458 23.5622 17.1042 22.8955 16.3021ZM20.3434 19.5625C20.3434 19.8333 20.1976 20.0937 19.9684 20.2292L18.4997 21.1042C18.3747 21.1771 18.2393 21.2187 18.0934 21.2187C17.833 21.2187 17.5726 21.0833 17.4268 20.8437C17.208 20.4687 17.3226 19.9896 17.6976 19.7708L18.7809 19.125V17.8125C18.7809 17.3854 19.1351 17.0312 19.5622 17.0312C19.9893 17.0312 20.3434 17.3854 20.3434 17.8125V19.5625Z" fill="#1C1C1C"/>
</svg>
