<svg width="26" height="10" viewBox="0 0 26 10" fill="none" xmlns="http://www.w3.org/2000/svg">
<path d="M0.963906 9V0.12H4.38391C4.95191 0.12 5.43591 0.224 5.83591 0.431999C6.24391 0.632 6.55591 0.904 6.77191 1.248C6.98791 1.584 7.09591 1.952 7.09591 2.352C7.09591 2.792 7.01591 3.148 6.85591 3.42C6.69591 3.692 6.51591 3.9 6.31591 4.044C6.11591 4.18 5.95591 4.272 5.83591 4.32V4.392C6.02791 4.448 6.24791 4.556 6.49591 4.716C6.75191 4.868 6.97191 5.088 7.15591 5.376C7.33991 5.664 7.43191 6.04 7.43191 6.504C7.43191 6.912 7.33191 7.308 7.13191 7.692C6.93191 8.076 6.61591 8.392 6.18391 8.64C5.75191 8.88 5.17991 9 4.46791 9H0.963906ZM4.33591 1.14H2.13991V3.972H4.33591C4.71991 3.972 5.02791 3.904 5.25991 3.768C5.49991 3.632 5.67191 3.456 5.77591 3.24C5.88791 3.016 5.94391 2.788 5.94391 2.556C5.94391 2.316 5.88791 2.088 5.77591 1.872C5.67191 1.656 5.49991 1.48 5.25991 1.344C5.02791 1.208 4.71991 1.14 4.33591 1.14ZM4.43191 4.92H2.13991V7.98H4.43191C4.87191 7.98 5.22391 7.908 5.48791 7.764C5.75191 7.612 5.94391 7.42 6.06391 7.188C6.19191 6.948 6.25591 6.7 6.25591 6.444C6.25591 6.188 6.19191 5.944 6.06391 5.712C5.94391 5.48 5.75191 5.292 5.48791 5.148C5.22391 4.996 4.87191 4.92 4.43191 4.92ZM11.0058 9.12C10.3738 9.12 9.86984 8.924 9.49384 8.532C9.11784 8.14 8.92984 7.596 8.92984 6.9V2.64H10.0698V6.84C10.0698 7.256 10.1818 7.576 10.4058 7.8C10.6378 8.024 10.9418 8.136 11.3178 8.136C11.7018 8.136 12.0098 8.036 12.2418 7.836C12.4738 7.636 12.6418 7.38 12.7458 7.068C12.8498 6.756 12.9018 6.436 12.9018 6.108V2.64H14.0418V9H12.9018V8.088H12.8298C12.7818 8.184 12.6898 8.316 12.5538 8.484C12.4178 8.644 12.2258 8.792 11.9778 8.928C11.7298 9.056 11.4058 9.12 11.0058 9.12ZM18.0547 9.12C17.5667 9.12 17.1627 9.052 16.8427 8.916C16.5307 8.78 16.2827 8.612 16.0987 8.412C15.9147 8.204 15.7787 8 15.6907 7.8C15.6027 7.592 15.5467 7.42 15.5227 7.284C15.4987 7.148 15.4867 7.08 15.4867 7.08H16.6387C16.6387 7.08 16.6507 7.136 16.6747 7.248C16.7067 7.352 16.7667 7.476 16.8547 7.62C16.9507 7.756 17.0947 7.88 17.2867 7.992C17.4867 8.096 17.7507 8.148 18.0787 8.148C18.4547 8.148 18.7467 8.06 18.9547 7.884C19.1627 7.7 19.2667 7.476 19.2667 7.212C19.2667 6.98 19.1827 6.796 19.0147 6.66C18.8547 6.524 18.6227 6.42 18.3187 6.348L17.4547 6.144C17.1347 6.064 16.8347 5.956 16.5547 5.82C16.2747 5.684 16.0467 5.5 15.8707 5.268C15.7027 5.028 15.6187 4.732 15.6187 4.38C15.6187 3.836 15.8227 3.392 16.2307 3.048C16.6387 2.696 17.1707 2.52 17.8267 2.52C18.2667 2.52 18.6307 2.584 18.9187 2.712C19.2067 2.832 19.4347 2.984 19.6027 3.168C19.7787 3.352 19.9067 3.536 19.9867 3.72C20.0747 3.904 20.1307 4.06 20.1547 4.188C20.1787 4.308 20.1907 4.368 20.1907 4.368H19.0867C19.0867 4.368 19.0747 4.324 19.0507 4.236C19.0267 4.14 18.9707 4.036 18.8827 3.924C18.8027 3.804 18.6787 3.7 18.5107 3.612C18.3427 3.516 18.1187 3.468 17.8387 3.468C17.4547 3.468 17.1747 3.556 16.9987 3.732C16.8227 3.908 16.7347 4.1 16.7347 4.308C16.7347 4.508 16.8147 4.672 16.9747 4.8C17.1427 4.92 17.3587 5.012 17.6227 5.076L18.4987 5.28C19.0427 5.408 19.4907 5.62 19.8427 5.916C20.2027 6.204 20.3827 6.62 20.3827 7.164C20.3827 7.516 20.2907 7.844 20.1067 8.148C19.9227 8.444 19.6587 8.68 19.3147 8.856C18.9707 9.032 18.5507 9.12 18.0547 9.12ZM24.4033 9.12C23.7473 9.12 23.2513 8.952 22.9153 8.616C22.5873 8.28 22.4233 7.808 22.4233 7.2V3.576H21.2833V2.64H22.4233V1.044H23.5633V2.64H25.1113V3.576H23.5633V7.2C23.5633 7.52 23.6513 7.756 23.8273 7.908C24.0033 8.052 24.2593 8.124 24.5953 8.124C24.7713 8.124 24.9393 8.112 25.0993 8.088C25.2593 8.064 25.3393 8.052 25.3393 8.052V9.024C25.3393 9.024 25.2473 9.04 25.0633 9.072C24.8793 9.104 24.6593 9.12 24.4033 9.12Z" fill="black"/>
</svg>
