<svg width="21" height="21" viewBox="0 0 21 21" fill="none" xmlns="http://www.w3.org/2000/svg">
<path d="M4.4675 4.4675C3.71248 5.22251 4.21325 6.80764 3.82895 7.73644C3.43058 8.69928 1.96875 9.47421 1.96875 10.5C1.96875 11.5258 3.43059 12.3007 3.82896 13.2636C4.21326 14.1924 3.71248 15.7775 4.4675 16.5325C5.22251 17.2875 6.80764 16.7867 7.73644 17.171C8.69928 17.5694 9.47421 19.0312 10.5 19.0312C11.5258 19.0312 12.3007 17.5694 13.2636 17.171C14.1924 16.7867 15.7775 17.2875 16.5325 16.5325C17.2875 15.7775 16.7867 14.1924 17.171 13.2636C17.5694 12.3007 19.0312 11.5258 19.0312 10.5C19.0312 9.47416 17.5694 8.69925 17.171 7.73643C16.7867 6.80763 17.2875 5.22251 16.5325 4.4675C15.7775 3.71248 14.1924 4.21325 13.2636 3.82895C12.3007 3.43058 11.5258 1.96875 10.5 1.96875C9.47416 1.96875 8.69925 3.43059 7.73643 3.82896C6.80763 4.21326 5.22251 3.71248 4.4675 4.4675Z" stroke="#656969" stroke-linecap="round" stroke-linejoin="round"/>
<path d="M10.5 14.4375V9.84375" stroke="#656969" stroke-linecap="round" stroke-linejoin="round"/>
<path d="M10.5 5.90625C11.0437 5.90625 11.4844 6.34697 11.4844 6.89062C11.4844 7.43428 11.0437 7.875 10.5 7.875C9.95634 7.875 9.51562 7.43428 9.51562 6.89062C9.51562 6.34697 9.95634 5.90625 10.5 5.90625Z" fill="#656969"/>
</svg>
