<svg width="20" height="20" viewBox="0 0 20 20" fill="none" xmlns="http://www.w3.org/2000/svg">
<path d="M17.8444 8.4332H17.2V8.4H10V11.6H14.5212C13.8616 13.4628 12.0892 14.8 10 14.8C7.3492 14.8 5.2 12.6508 5.2 10C5.2 7.3492 7.3492 5.2 10 5.2C11.2236 5.2 12.3368 5.6616 13.1844 6.4156L15.4472 4.1528C14.0184 2.8212 12.1072 2 10 2C5.582 2 2 5.582 2 10C2 14.418 5.582 18 10 18C14.418 18 18 14.418 18 10C18 9.4636 17.9448 8.94 17.8444 8.4332Z" fill="#FFC107"/>
<path d="M2.92242 6.2764L5.55082 8.204C6.26202 6.4432 7.98442 5.2 10 5.2C11.2236 5.2 12.3368 5.6616 13.1844 6.4156L15.4472 4.1528C14.0184 2.8212 12.1072 2 10 2C6.92722 2 4.26242 3.7348 2.92242 6.2764Z" fill="#FF3D00"/>
<path d="M9.99999 18C12.0664 18 13.944 17.2092 15.3636 15.9232L12.8876 13.828C12.0574 14.4594 11.043 14.8008 9.99999 14.8C7.91919 14.8 6.15239 13.4732 5.48679 11.6216L2.87799 13.6316C4.20199 16.2224 6.89079 18 9.99999 18Z" fill="#4CAF50"/>
<path d="M17.8444 8.43322H17.2V8.40002H10V11.6H14.5212C14.2057 12.4866 13.6373 13.2613 12.8864 13.8284L12.8876 13.8276L15.3636 15.9228C15.1884 16.082 18 14 18 10C18 9.46362 17.9448 8.94002 17.8444 8.43322Z" fill="#1976D2"/>
</svg>
