<svg width="243" height="343" viewBox="0 0 243 343" fill="none" xmlns="http://www.w3.org/2000/svg">
<path opacity="0.1" d="M121.125 343C52.285 343 15.4849 316.139 4.00044 290.967C-2.31022 277.144 -1.09097 263.143 7.25693 253.51C20.0678 238.723 85.7463 134.969 83.9361 99.391C83.4364 86.3115 82.13 73.2775 80.0312 60.3594C75.6137 67.5001 70.0266 73.8482 63.5009 79.1333C53.4051 86.357 42.6978 75.9679 35.6147 69.0831C30.9574 64.6033 30.5481 57.2804 34.6849 52.3136L67.505 6.36432C67.6537 6.162 67.8151 5.96772 67.9967 5.79421C71.84 2.06677 76.9891 -0.0120004 82.3404 0.000728144H92.7336C96.7129 0.00876721 100.445 1.92675 102.772 5.15377C109.871 15.0552 117.314 16.5304 121.124 16.5304C124.935 16.5304 132.381 15.0552 139.485 5.14908C141.803 1.91737 145.539 0.00407775 149.514 5.82221e-05H159.907C165.259 -0.0126703 170.408 2.06208 174.256 5.7855C174.437 5.95901 174.599 6.15329 174.747 6.35561L207.754 52.5286C211.738 57.4874 211.258 64.6703 206.654 69.059C199.583 75.9397 188.885 86.3289 178.768 79.1091C172.238 73.8194 166.643 67.4759 162.217 60.3352C160.118 73.2533 158.812 86.2874 158.312 99.3669C156.424 136.56 225.412 241.472 235.826 253.486C244.091 262.991 245.281 276.884 239.025 290.583C227.467 315.936 190.423 343 121.125 343ZM81.7415 45.4576H81.9934C83.6012 45.5568 85.006 46.5817 85.5929 48.0817C85.7791 48.5654 90.2381 60.3882 92.205 98.9616C94.271 139.576 24.5141 246.229 13.5173 258.916C7.25626 266.139 6.53341 276.57 11.5337 287.529C21.4599 309.312 56.1317 334.735 121.124 334.735C186.575 334.735 221.507 309.113 231.508 287.178C236.467 276.339 235.752 266.044 229.578 258.924C218.474 246.113 148.026 139.023 150.055 98.9703C152.014 60.3975 156.469 48.5533 156.668 48.0904C157.25 46.5905 158.655 45.5655 160.263 45.4663C161.866 45.3839 163.375 46.2227 164.152 47.6275C164.251 47.805 173.859 65.4715 183.575 72.4226C187.74 75.3817 194.142 69.7409 200.898 63.1697C202.452 61.6778 202.585 59.2352 201.205 57.5825L168.256 11.5006C165.979 9.4138 162.999 8.25685 159.908 8.26489H149.515C148.205 8.26489 146.973 8.89729 146.209 9.96314C136.944 22.8692 126.517 24.7945 121.124 24.7945C115.731 24.7945 105.305 22.8685 96.0524 9.96716C95.288 8.90064 94.0566 8.26891 92.7463 8.26489H82.3404C79.2494 8.25685 76.2696 9.4138 73.9925 11.5006L41.2173 57.3467C39.6965 59.0081 39.7582 61.5699 41.3539 63.157C48.1108 69.7275 54.5118 75.373 58.6774 72.4099C68.3973 65.4715 78.0093 47.805 78.1004 47.6148C78.828 46.2803 80.2248 45.4536 81.7415 45.4576Z" fill="#1C1C1C"/>
</svg>
