<svg width="22" height="22" viewBox="0 0 22 22" fill="none" xmlns="http://www.w3.org/2000/svg">
<path d="M11.0002 12.8334H11.9168C12.9252 12.8334 13.7502 12.0084 13.7502 11V1.83337H5.50018C4.12518 1.83337 2.92436 2.5942 2.30103 3.71253" stroke="#1C1C1C" stroke-width="1.2" stroke-linecap="round" stroke-linejoin="round"/>
<path d="M1.8335 15.5834C1.8335 17.105 3.06183 18.3334 4.5835 18.3334H5.50016C5.50016 17.325 6.32516 16.5 7.3335 16.5C8.34183 16.5 9.16683 17.325 9.16683 18.3334H12.8335C12.8335 17.325 13.6585 16.5 14.6668 16.5C15.6752 16.5 16.5002 17.325 16.5002 18.3334H17.4168C18.9385 18.3334 20.1668 17.105 20.1668 15.5834V12.8334H17.4168C16.9127 12.8334 16.5002 12.4209 16.5002 11.9167V9.16671C16.5002 8.66254 16.9127 8.25004 17.4168 8.25004H18.5993L17.0318 5.50922C16.7018 4.94088 16.0969 4.58337 15.4369 4.58337H13.7502V11C13.7502 12.0084 12.9252 12.8334 11.9168 12.8334H11.0002" stroke="#1C1C1C" stroke-width="1.2" stroke-linecap="round" stroke-linejoin="round"/>
<path d="M7.33333 20.1667C8.34586 20.1667 9.16667 19.3459 9.16667 18.3333C9.16667 17.3208 8.34586 16.5 7.33333 16.5C6.32081 16.5 5.5 17.3208 5.5 18.3333C5.5 19.3459 6.32081 20.1667 7.33333 20.1667Z" stroke="#1C1C1C" stroke-width="1.2" stroke-linecap="round" stroke-linejoin="round"/>
<path d="M14.6668 20.1667C15.6794 20.1667 16.5002 19.3459 16.5002 18.3333C16.5002 17.3208 15.6794 16.5 14.6668 16.5C13.6543 16.5 12.8335 17.3208 12.8335 18.3333C12.8335 19.3459 13.6543 20.1667 14.6668 20.1667Z" stroke="#1C1C1C" stroke-width="1.2" stroke-linecap="round" stroke-linejoin="round"/>
<path d="M20.1667 11V12.8333H17.4167C16.9125 12.8333 16.5 12.4208 16.5 11.9167V9.16667C16.5 8.6625 16.9125 8.25 17.4167 8.25H18.5991L20.1667 11Z" stroke="#1C1C1C" stroke-width="1.2" stroke-linecap="round" stroke-linejoin="round"/>
<path d="M1.8335 7.33337H7.3335" stroke="#1C1C1C" stroke-width="1.2" stroke-linecap="round" stroke-linejoin="round"/>
<path d="M1.8335 10.0834H5.50016" stroke="#1C1C1C" stroke-width="1.2" stroke-linecap="round" stroke-linejoin="round"/>
<path d="M1.8335 12.8334H3.66683" stroke="#1C1C1C" stroke-width="1.2" stroke-linecap="round" stroke-linejoin="round"/>
</svg>
