<svg width="234" height="50" viewBox="0 0 234 50" fill="none" xmlns="http://www.w3.org/2000/svg">
<rect x="0.5" y="0.5" width="49" height="49" rx="5.5" fill="white" stroke="#979797" stroke-dasharray="4 4"/>
<path d="M19 25H31" stroke="#1C1C1C" stroke-width="1.5" stroke-linecap="round" stroke-linejoin="round"/>
<path d="M25 31V19" stroke="#1C1C1C" stroke-width="1.5" stroke-linecap="round" stroke-linejoin="round"/>
<path d="M73.43 21.15C72.56 21.15 71.81 20.985 71.18 20.655C70.55 20.315 70.06 19.84 69.71 19.23C69.37 18.61 69.2 17.88 69.2 17.04V9.9H70.67V17.04C70.67 17.81 70.895 18.455 71.345 18.975C71.805 19.495 72.5 19.755 73.43 19.755C74.37 19.755 75.065 19.495 75.515 18.975C75.975 18.455 76.205 17.81 76.205 17.04V9.9H77.675V17.04C77.675 17.88 77.5 18.61 77.15 19.23C76.81 19.84 76.325 20.315 75.695 20.655C75.065 20.985 74.31 21.15 73.43 21.15ZM80.0691 23.94V13.05H81.4941V14.31H81.5841C81.7041 14.12 81.8641 13.915 82.0641 13.695C82.2741 13.475 82.5491 13.29 82.8891 13.14C83.2291 12.98 83.6491 12.9 84.1491 12.9C84.7491 12.9 85.2741 13.02 85.7241 13.26C86.1741 13.49 86.5491 13.805 86.8491 14.205C87.1491 14.595 87.3741 15.035 87.5241 15.525C87.6741 16.015 87.7491 16.515 87.7491 17.025C87.7491 17.535 87.6741 18.035 87.5241 18.525C87.3741 19.015 87.1491 19.46 86.8491 19.86C86.5491 20.25 86.1741 20.565 85.7241 20.805C85.2741 21.035 84.7491 21.15 84.1491 21.15C83.6491 21.15 83.2291 21.07 82.8891 20.91C82.5491 20.75 82.2741 20.56 82.0641 20.34C81.8641 20.12 81.7041 19.92 81.5841 19.74H81.4941V23.94H80.0691ZM81.5241 17.025C81.5241 17.505 81.6091 17.97 81.7791 18.42C81.9591 18.86 82.2241 19.225 82.5741 19.515C82.9341 19.795 83.3791 19.935 83.9091 19.935C84.4491 19.935 84.8941 19.795 85.2441 19.515C85.6041 19.225 85.8691 18.86 86.0391 18.42C86.2191 17.97 86.3091 17.505 86.3091 17.025C86.3091 16.535 86.2191 16.07 86.0391 15.63C85.8691 15.19 85.6041 14.83 85.2441 14.55C84.8941 14.26 84.4491 14.115 83.9091 14.115C83.3791 14.115 82.9341 14.26 82.5741 14.55C82.2241 14.83 81.9591 15.19 81.7791 15.63C81.6091 16.07 81.5241 16.535 81.5241 17.025ZM89.8543 21L89.8693 9.6H91.2793V21H89.8543ZM97.2925 21.15C96.4425 21.15 95.7275 20.955 95.1475 20.565C94.5675 20.165 94.1275 19.65 93.8275 19.02C93.5275 18.39 93.3775 17.725 93.3775 17.025C93.3775 16.315 93.5275 15.65 93.8275 15.03C94.1275 14.4 94.5675 13.89 95.1475 13.5C95.7275 13.1 96.4425 12.9 97.2925 12.9C98.1425 12.9 98.8575 13.1 99.4375 13.5C100.018 13.89 100.458 14.4 100.758 15.03C101.058 15.65 101.208 16.315 101.208 17.025C101.208 17.725 101.058 18.39 100.758 19.02C100.458 19.65 100.018 20.165 99.4375 20.565C98.8575 20.955 98.1425 21.15 97.2925 21.15ZM97.2925 19.905C97.8325 19.905 98.2825 19.77 98.6425 19.5C99.0125 19.22 99.2875 18.86 99.4675 18.42C99.6575 17.98 99.7525 17.515 99.7525 17.025C99.7525 16.525 99.6575 16.06 99.4675 15.63C99.2875 15.19 99.0125 14.835 98.6425 14.565C98.2825 14.285 97.8325 14.145 97.2925 14.145C96.7625 14.145 96.3125 14.285 95.9425 14.565C95.5725 14.835 95.2925 15.19 95.1025 15.63C94.9225 16.06 94.8325 16.525 94.8325 17.025C94.8325 17.515 94.9225 17.98 95.1025 18.42C95.2925 18.86 95.5725 19.22 95.9425 19.5C96.3125 19.77 96.7625 19.905 97.2925 19.905ZM106.528 12.9C107.028 12.9 107.448 12.98 107.788 13.14C108.128 13.3 108.403 13.49 108.613 13.71C108.823 13.92 108.983 14.12 109.093 14.31H109.183V13.05H110.608V21H109.183V19.74H109.093C108.983 19.93 108.823 20.135 108.613 20.355C108.403 20.575 108.128 20.765 107.788 20.925C107.448 21.075 107.028 21.15 106.528 21.15C105.928 21.15 105.403 21.035 104.953 20.805C104.503 20.565 104.128 20.25 103.828 19.86C103.528 19.46 103.303 19.015 103.153 18.525C103.003 18.035 102.928 17.535 102.928 17.025C102.928 16.515 103.003 16.015 103.153 15.525C103.303 15.035 103.528 14.595 103.828 14.205C104.128 13.805 104.503 13.49 104.953 13.26C105.403 13.02 105.928 12.9 106.528 12.9ZM106.768 14.115C106.238 14.115 105.793 14.26 105.433 14.55C105.073 14.83 104.803 15.19 104.623 15.63C104.453 16.07 104.368 16.535 104.368 17.025C104.368 17.505 104.453 17.97 104.623 18.42C104.803 18.86 105.073 19.225 105.433 19.515C105.793 19.795 106.238 19.935 106.768 19.935C107.298 19.935 107.738 19.795 108.088 19.515C108.448 19.225 108.713 18.86 108.883 18.42C109.063 17.97 109.153 17.505 109.153 17.025C109.153 16.535 109.063 16.07 108.883 15.63C108.713 15.19 108.448 14.83 108.088 14.55C107.738 14.26 107.298 14.115 106.768 14.115ZM116.152 21.15C115.552 21.15 115.027 21.035 114.577 20.805C114.127 20.565 113.752 20.25 113.452 19.86C113.152 19.46 112.927 19.015 112.777 18.525C112.627 18.035 112.552 17.535 112.552 17.025C112.552 16.515 112.627 16.015 112.777 15.525C112.927 15.035 113.152 14.595 113.452 14.205C113.752 13.805 114.127 13.49 114.577 13.26C115.027 13.02 115.552 12.9 116.152 12.9C116.652 12.9 117.072 12.98 117.412 13.14C117.752 13.3 118.027 13.49 118.237 13.71C118.447 13.92 118.607 14.12 118.717 14.31H118.807V9.6H120.232V21H118.807V19.74H118.717C118.607 19.93 118.447 20.135 118.237 20.355C118.027 20.575 117.752 20.765 117.412 20.925C117.072 21.075 116.652 21.15 116.152 21.15ZM116.392 19.935C116.922 19.935 117.362 19.795 117.712 19.515C118.072 19.225 118.337 18.86 118.507 18.42C118.687 17.97 118.777 17.505 118.777 17.025C118.777 16.535 118.687 16.07 118.507 15.63C118.337 15.19 118.072 14.83 117.712 14.55C117.362 14.26 116.922 14.115 116.392 14.115C115.862 14.115 115.417 14.26 115.057 14.55C114.697 14.83 114.427 15.19 114.247 15.63C114.077 16.07 113.992 16.535 113.992 17.025C113.992 17.505 114.077 17.97 114.247 18.42C114.427 18.86 114.697 19.225 115.057 19.515C115.417 19.795 115.862 19.935 116.392 19.935ZM126.095 21V9.9H127.565V21H126.095ZM129.812 21V13.05H131.237V14.205H131.297C131.377 14.055 131.502 13.88 131.672 13.68C131.842 13.47 132.072 13.29 132.362 13.14C132.662 12.98 133.037 12.9 133.487 12.9C134.077 12.9 134.572 13.045 134.972 13.335C135.382 13.615 135.687 13.995 135.887 14.475H135.902C136.122 14.035 136.432 13.665 136.832 13.365C137.242 13.055 137.772 12.9 138.422 12.9C139.282 12.9 139.942 13.195 140.402 13.785C140.872 14.365 141.107 15.115 141.107 16.035V21H139.682V16.11C139.682 15.52 139.542 15.045 139.262 14.685C138.982 14.315 138.577 14.13 138.047 14.13C137.587 14.13 137.217 14.255 136.937 14.505C136.667 14.755 136.472 15.065 136.352 15.435C136.232 15.805 136.172 16.175 136.172 16.545V21H134.747V16.11C134.747 15.52 134.607 15.045 134.327 14.685C134.057 14.315 133.652 14.13 133.112 14.13C132.652 14.13 132.282 14.255 132.002 14.505C131.732 14.755 131.537 15.07 131.417 15.45C131.297 15.82 131.237 16.185 131.237 16.545V21H129.812ZM146.65 12.9C147.15 12.9 147.57 12.98 147.91 13.14C148.25 13.3 148.525 13.49 148.735 13.71C148.945 13.92 149.105 14.12 149.215 14.31H149.305V13.05H150.73V21H149.305V19.74H149.215C149.105 19.93 148.945 20.135 148.735 20.355C148.525 20.575 148.25 20.765 147.91 20.925C147.57 21.075 147.15 21.15 146.65 21.15C146.05 21.15 145.525 21.035 145.075 20.805C144.625 20.565 144.25 20.25 143.95 19.86C143.65 19.46 143.425 19.015 143.275 18.525C143.125 18.035 143.05 17.535 143.05 17.025C143.05 16.515 143.125 16.015 143.275 15.525C143.425 15.035 143.65 14.595 143.95 14.205C144.25 13.805 144.625 13.49 145.075 13.26C145.525 13.02 146.05 12.9 146.65 12.9ZM146.89 14.115C146.36 14.115 145.915 14.26 145.555 14.55C145.195 14.83 144.925 15.19 144.745 15.63C144.575 16.07 144.49 16.535 144.49 17.025C144.49 17.505 144.575 17.97 144.745 18.42C144.925 18.86 145.195 19.225 145.555 19.515C145.915 19.795 146.36 19.935 146.89 19.935C147.42 19.935 147.86 19.795 148.21 19.515C148.57 19.225 148.835 18.86 149.005 18.42C149.185 17.97 149.275 17.505 149.275 17.025C149.275 16.535 149.185 16.07 149.005 15.63C148.835 15.19 148.57 14.83 148.21 14.55C147.86 14.26 147.42 14.115 146.89 14.115ZM156.649 24.15C155.989 24.15 155.439 24.06 154.999 23.88C154.559 23.71 154.204 23.49 153.934 23.22C153.674 22.96 153.479 22.7 153.349 22.44C153.219 22.18 153.134 21.96 153.094 21.78C153.054 21.61 153.034 21.525 153.034 21.525H154.459C154.459 21.525 154.484 21.595 154.534 21.735C154.584 21.875 154.679 22.035 154.819 22.215C154.969 22.395 155.189 22.555 155.479 22.695C155.769 22.835 156.159 22.905 156.649 22.905C157.229 22.905 157.684 22.79 158.014 22.56C158.344 22.34 158.579 22.05 158.719 21.69C158.869 21.33 158.944 20.95 158.944 20.55V19.635H158.869C158.769 19.805 158.609 20 158.389 20.22C158.179 20.43 157.899 20.615 157.549 20.775C157.199 20.925 156.769 21 156.259 21C155.659 21 155.134 20.885 154.684 20.655C154.234 20.425 153.859 20.115 153.559 19.725C153.269 19.335 153.049 18.9 152.899 18.42C152.749 17.94 152.674 17.45 152.674 16.95C152.674 16.45 152.749 15.96 152.899 15.48C153.049 15 153.269 14.565 153.559 14.175C153.859 13.785 154.234 13.475 154.684 13.245C155.134 13.015 155.659 12.9 156.259 12.9C156.769 12.9 157.199 12.98 157.549 13.14C157.899 13.29 158.179 13.47 158.389 13.68C158.609 13.89 158.769 14.085 158.869 14.265H158.944V13.05H160.369V20.535C160.369 21.645 160.044 22.525 159.394 23.175C158.754 23.825 157.839 24.15 156.649 24.15ZM156.529 19.785C157.059 19.785 157.499 19.65 157.849 19.38C158.209 19.1 158.474 18.745 158.644 18.315C158.824 17.885 158.914 17.43 158.914 16.95C158.914 16.47 158.824 16.015 158.644 15.585C158.474 15.145 158.209 14.79 157.849 14.52C157.499 14.25 157.059 14.115 156.529 14.115C155.999 14.115 155.554 14.25 155.194 14.52C154.834 14.79 154.564 15.145 154.384 15.585C154.214 16.015 154.129 16.47 154.129 16.95C154.129 17.43 154.214 17.885 154.384 18.315C154.564 18.745 154.834 19.1 155.194 19.38C155.554 19.65 155.999 19.785 156.529 19.785ZM165.785 21.15C165.135 21.15 164.57 21.035 164.09 20.805C163.62 20.565 163.23 20.245 162.92 19.845C162.62 19.445 162.395 19.005 162.245 18.525C162.095 18.035 162.02 17.535 162.02 17.025C162.02 16.525 162.09 16.03 162.23 15.54C162.38 15.05 162.605 14.605 162.905 14.205C163.215 13.805 163.6 13.49 164.06 13.26C164.53 13.02 165.085 12.9 165.725 12.9C166.405 12.9 167.005 13.055 167.525 13.365C168.045 13.675 168.455 14.135 168.755 14.745C169.055 15.355 169.205 16.12 169.205 17.04V17.46H163.46C163.49 17.91 163.595 18.325 163.775 18.705C163.965 19.075 164.23 19.375 164.57 19.605C164.91 19.825 165.315 19.935 165.785 19.935C166.195 19.935 166.525 19.87 166.775 19.74C167.035 19.6 167.24 19.44 167.39 19.26C167.54 19.08 167.64 18.925 167.69 18.795C167.75 18.655 167.78 18.585 167.78 18.585H169.115C169.115 18.585 169.09 18.675 169.04 18.855C168.99 19.025 168.9 19.235 168.77 19.485C168.64 19.735 168.45 19.99 168.2 20.25C167.95 20.5 167.63 20.715 167.24 20.895C166.85 21.065 166.365 21.15 165.785 21.15ZM163.475 16.35H167.81C167.79 15.83 167.68 15.41 167.48 15.09C167.28 14.76 167.025 14.515 166.715 14.355C166.405 14.195 166.075 14.115 165.725 14.115C165.095 14.115 164.58 14.32 164.18 14.73C163.78 15.13 163.545 15.67 163.475 16.35ZM174.06 21.15C173.45 21.15 172.945 21.065 172.545 20.895C172.155 20.725 171.845 20.515 171.615 20.265C171.385 20.005 171.215 19.75 171.105 19.5C170.995 19.24 170.925 19.025 170.895 18.855C170.865 18.685 170.85 18.6 170.85 18.6H172.29C172.29 18.6 172.305 18.67 172.335 18.81C172.375 18.94 172.45 19.095 172.56 19.275C172.68 19.445 172.86 19.6 173.1 19.74C173.35 19.87 173.68 19.935 174.09 19.935C174.56 19.935 174.925 19.825 175.185 19.605C175.445 19.375 175.575 19.095 175.575 18.765C175.575 18.475 175.47 18.245 175.26 18.075C175.06 17.905 174.77 17.775 174.39 17.685L173.31 17.43C172.91 17.33 172.535 17.195 172.185 17.025C171.835 16.855 171.55 16.625 171.33 16.335C171.12 16.035 171.015 15.665 171.015 15.225C171.015 14.545 171.27 13.99 171.78 13.56C172.29 13.12 172.955 12.9 173.775 12.9C174.325 12.9 174.78 12.98 175.14 13.14C175.5 13.29 175.785 13.48 175.995 13.71C176.215 13.94 176.375 14.17 176.475 14.4C176.585 14.63 176.655 14.825 176.685 14.985C176.715 15.135 176.73 15.21 176.73 15.21H175.35C175.35 15.21 175.335 15.155 175.305 15.045C175.275 14.925 175.205 14.795 175.095 14.655C174.995 14.505 174.84 14.375 174.63 14.265C174.42 14.145 174.14 14.085 173.79 14.085C173.31 14.085 172.96 14.195 172.74 14.415C172.52 14.635 172.41 14.875 172.41 15.135C172.41 15.385 172.51 15.59 172.71 15.75C172.92 15.9 173.19 16.015 173.52 16.095L174.615 16.35C175.295 16.51 175.855 16.775 176.295 17.145C176.745 17.505 176.97 18.025 176.97 18.705C176.97 19.145 176.855 19.555 176.625 19.935C176.395 20.305 176.065 20.6 175.635 20.82C175.205 21.04 174.68 21.15 174.06 21.15Z" fill="#1C1C1C"/>
<path d="M72.344 42.12C71.648 42.12 71.048 41.988 70.544 41.724C70.04 41.452 69.648 41.072 69.368 40.584C69.096 40.088 68.96 39.504 68.96 38.832V33.12H70.136V38.832C70.136 39.448 70.316 39.964 70.676 40.38C71.044 40.796 71.6 41.004 72.344 41.004C73.096 41.004 73.652 40.796 74.012 40.38C74.38 39.964 74.564 39.448 74.564 38.832V33.12H75.74V38.832C75.74 39.504 75.6 40.088 75.32 40.584C75.048 41.072 74.66 41.452 74.156 41.724C73.652 41.988 73.048 42.12 72.344 42.12ZM77.6553 44.352V35.64H78.7953V36.648H78.8673C78.9633 36.496 79.0913 36.332 79.2513 36.156C79.4193 35.98 79.6393 35.832 79.9113 35.712C80.1833 35.584 80.5193 35.52 80.9193 35.52C81.3993 35.52 81.8193 35.616 82.1793 35.808C82.5393 35.992 82.8393 36.244 83.0793 36.564C83.3193 36.876 83.4993 37.228 83.6193 37.62C83.7393 38.012 83.7993 38.412 83.7993 38.82C83.7993 39.228 83.7393 39.628 83.6193 40.02C83.4993 40.412 83.3193 40.768 83.0793 41.088C82.8393 41.4 82.5393 41.652 82.1793 41.844C81.8193 42.028 81.3993 42.12 80.9193 42.12C80.5193 42.12 80.1833 42.056 79.9113 41.928C79.6393 41.8 79.4193 41.648 79.2513 41.472C79.0913 41.296 78.9633 41.136 78.8673 40.992H78.7953V44.352H77.6553ZM78.8193 38.82C78.8193 39.204 78.8873 39.576 79.0233 39.936C79.1673 40.288 79.3793 40.58 79.6593 40.812C79.9473 41.036 80.3033 41.148 80.7273 41.148C81.1593 41.148 81.5153 41.036 81.7953 40.812C82.0833 40.58 82.2953 40.288 82.4313 39.936C82.5753 39.576 82.6473 39.204 82.6473 38.82C82.6473 38.428 82.5753 38.056 82.4313 37.704C82.2953 37.352 82.0833 37.064 81.7953 36.84C81.5153 36.608 81.1593 36.492 80.7273 36.492C80.3033 36.492 79.9473 36.608 79.6593 36.84C79.3793 37.064 79.1673 37.352 79.0233 37.704C78.8873 38.056 78.8193 38.428 78.8193 38.82ZM85.4834 42L85.4954 32.88H86.6234V42H85.4834ZM91.434 42.12C90.754 42.12 90.182 41.964 89.718 41.652C89.254 41.332 88.902 40.92 88.662 40.416C88.422 39.912 88.302 39.38 88.302 38.82C88.302 38.252 88.422 37.72 88.662 37.224C88.902 36.72 89.254 36.312 89.718 36C90.182 35.68 90.754 35.52 91.434 35.52C92.114 35.52 92.686 35.68 93.15 36C93.614 36.312 93.966 36.72 94.206 37.224C94.446 37.72 94.566 38.252 94.566 38.82C94.566 39.38 94.446 39.912 94.206 40.416C93.966 40.92 93.614 41.332 93.15 41.652C92.686 41.964 92.114 42.12 91.434 42.12ZM91.434 41.124C91.866 41.124 92.226 41.016 92.514 40.8C92.81 40.576 93.03 40.288 93.174 39.936C93.326 39.584 93.402 39.212 93.402 38.82C93.402 38.42 93.326 38.048 93.174 37.704C93.03 37.352 92.81 37.068 92.514 36.852C92.226 36.628 91.866 36.516 91.434 36.516C91.01 36.516 90.65 36.628 90.354 36.852C90.058 37.068 89.834 37.352 89.682 37.704C89.538 38.048 89.466 38.42 89.466 38.82C89.466 39.212 89.538 39.584 89.682 39.936C89.834 40.288 90.058 40.576 90.354 40.8C90.65 41.016 91.01 41.124 91.434 41.124ZM98.8227 35.52C99.2227 35.52 99.5587 35.584 99.8307 35.712C100.103 35.84 100.323 35.992 100.491 36.168C100.659 36.336 100.787 36.496 100.875 36.648H100.947V35.64H102.087V42H100.947V40.992H100.875C100.787 41.144 100.659 41.308 100.491 41.484C100.323 41.66 100.103 41.812 99.8307 41.94C99.5587 42.06 99.2227 42.12 98.8227 42.12C98.3427 42.12 97.9227 42.028 97.5627 41.844C97.2027 41.652 96.9027 41.4 96.6627 41.088C96.4227 40.768 96.2427 40.412 96.1227 40.02C96.0027 39.628 95.9427 39.228 95.9427 38.82C95.9427 38.412 96.0027 38.012 96.1227 37.62C96.2427 37.228 96.4227 36.876 96.6627 36.564C96.9027 36.244 97.2027 35.992 97.5627 35.808C97.9227 35.616 98.3427 35.52 98.8227 35.52ZM99.0147 36.492C98.5907 36.492 98.2347 36.608 97.9467 36.84C97.6587 37.064 97.4427 37.352 97.2987 37.704C97.1627 38.056 97.0947 38.428 97.0947 38.82C97.0947 39.204 97.1627 39.576 97.2987 39.936C97.4427 40.288 97.6587 40.58 97.9467 40.812C98.2347 41.036 98.5907 41.148 99.0147 41.148C99.4387 41.148 99.7907 41.036 100.071 40.812C100.359 40.58 100.571 40.288 100.707 39.936C100.851 39.576 100.923 39.204 100.923 38.82C100.923 38.428 100.851 38.056 100.707 37.704C100.571 37.352 100.359 37.064 100.071 36.84C99.7907 36.608 99.4387 36.492 99.0147 36.492ZM106.522 42.12C106.042 42.12 105.622 42.028 105.262 41.844C104.902 41.652 104.602 41.4 104.362 41.088C104.122 40.768 103.942 40.412 103.822 40.02C103.702 39.628 103.642 39.228 103.642 38.82C103.642 38.412 103.702 38.012 103.822 37.62C103.942 37.228 104.122 36.876 104.362 36.564C104.602 36.244 104.902 35.992 105.262 35.808C105.622 35.616 106.042 35.52 106.522 35.52C106.922 35.52 107.258 35.584 107.53 35.712C107.802 35.84 108.022 35.992 108.19 36.168C108.358 36.336 108.486 36.496 108.574 36.648H108.646V32.88H109.786V42H108.646V40.992H108.574C108.486 41.144 108.358 41.308 108.19 41.484C108.022 41.66 107.802 41.812 107.53 41.94C107.258 42.06 106.922 42.12 106.522 42.12ZM106.714 41.148C107.138 41.148 107.49 41.036 107.77 40.812C108.058 40.58 108.27 40.288 108.406 39.936C108.55 39.576 108.622 39.204 108.622 38.82C108.622 38.428 108.55 38.056 108.406 37.704C108.27 37.352 108.058 37.064 107.77 36.84C107.49 36.608 107.138 36.492 106.714 36.492C106.29 36.492 105.934 36.608 105.646 36.84C105.358 37.064 105.142 37.352 104.998 37.704C104.862 38.056 104.794 38.428 104.794 38.82C104.794 39.204 104.862 39.576 104.998 39.936C105.142 40.288 105.358 40.58 105.646 40.812C105.934 41.036 106.29 41.148 106.714 41.148ZM114.476 42V33.12H117.644C118.324 33.12 118.888 33.26 119.336 33.54C119.792 33.82 120.132 34.184 120.356 34.632C120.588 35.072 120.704 35.532 120.704 36.012C120.704 36.5 120.588 36.968 120.356 37.416C120.132 37.856 119.792 38.22 119.336 38.508C118.888 38.788 118.324 38.928 117.644 38.928H115.652V42H114.476ZM117.644 34.152H115.652V37.896H117.644C118.068 37.896 118.42 37.804 118.7 37.62C118.98 37.436 119.188 37.204 119.324 36.924C119.468 36.636 119.54 36.336 119.54 36.024C119.54 35.712 119.468 35.412 119.324 35.124C119.188 34.836 118.98 34.604 118.7 34.428C118.42 34.244 118.068 34.152 117.644 34.152ZM122.078 42V35.64H123.218V36.564H123.29C123.346 36.468 123.438 36.336 123.566 36.168C123.702 36 123.894 35.852 124.142 35.724C124.39 35.588 124.702 35.52 125.078 35.52C125.542 35.52 125.938 35.628 126.266 35.844C126.594 36.052 126.842 36.336 127.01 36.696C127.186 37.056 127.274 37.46 127.274 37.908V42H126.134V37.98C126.134 37.556 126.014 37.204 125.774 36.924C125.542 36.644 125.202 36.504 124.754 36.504C124.394 36.504 124.102 36.596 123.878 36.78C123.654 36.956 123.486 37.192 123.374 37.488C123.27 37.776 123.218 38.084 123.218 38.412V42H122.078ZM132.017 44.52C131.489 44.52 131.049 44.448 130.697 44.304C130.345 44.168 130.061 43.992 129.845 43.776C129.637 43.568 129.481 43.36 129.377 43.152C129.273 42.944 129.205 42.768 129.173 42.624C129.141 42.488 129.125 42.42 129.125 42.42H130.265C130.265 42.42 130.285 42.476 130.325 42.588C130.365 42.7 130.441 42.828 130.553 42.972C130.673 43.116 130.849 43.244 131.081 43.356C131.313 43.468 131.625 43.524 132.017 43.524C132.481 43.524 132.845 43.432 133.109 43.248C133.373 43.072 133.561 42.84 133.673 42.552C133.793 42.264 133.853 41.96 133.853 41.64V40.908H133.793C133.713 41.044 133.585 41.2 133.409 41.376C133.241 41.544 133.017 41.692 132.737 41.82C132.457 41.94 132.113 42 131.705 42C131.225 42 130.805 41.908 130.445 41.724C130.085 41.54 129.785 41.292 129.545 40.98C129.313 40.668 129.137 40.32 129.017 39.936C128.897 39.552 128.837 39.16 128.837 38.76C128.837 38.36 128.897 37.968 129.017 37.584C129.137 37.2 129.313 36.852 129.545 36.54C129.785 36.228 130.085 35.98 130.445 35.796C130.805 35.612 131.225 35.52 131.705 35.52C132.113 35.52 132.457 35.584 132.737 35.712C133.017 35.832 133.241 35.976 133.409 36.144C133.585 36.312 133.713 36.468 133.793 36.612H133.853V35.64H134.993V41.628C134.993 42.516 134.733 43.22 134.213 43.74C133.701 44.26 132.969 44.52 132.017 44.52ZM131.921 41.028C132.345 41.028 132.697 40.92 132.977 40.704C133.265 40.48 133.477 40.196 133.613 39.852C133.757 39.508 133.829 39.144 133.829 38.76C133.829 38.376 133.757 38.012 133.613 37.668C133.477 37.316 133.265 37.032 132.977 36.816C132.697 36.6 132.345 36.492 131.921 36.492C131.497 36.492 131.141 36.6 130.853 36.816C130.565 37.032 130.349 37.316 130.205 37.668C130.069 38.012 130.001 38.376 130.001 38.76C130.001 39.144 130.069 39.508 130.205 39.852C130.349 40.196 130.565 40.48 130.853 40.704C131.141 40.92 131.497 41.028 131.921 41.028ZM136.764 43.476L137.628 42.084C137.436 42.068 137.272 41.988 137.136 41.844C137.008 41.7 136.944 41.524 136.944 41.316C136.944 41.084 137.024 40.9 137.184 40.764C137.344 40.628 137.524 40.56 137.724 40.56C137.948 40.56 138.136 40.628 138.288 40.764C138.448 40.9 138.528 41.092 138.528 41.34C138.528 41.564 138.44 41.82 138.264 42.108C138.096 42.396 137.824 42.812 137.448 43.356L137.364 43.476H136.764ZM143.931 34.428C143.715 34.428 143.535 34.356 143.391 34.212C143.255 34.068 143.187 33.896 143.187 33.696C143.187 33.488 143.255 33.312 143.391 33.168C143.535 33.024 143.715 32.952 143.931 32.952C144.139 32.952 144.315 33.024 144.459 33.168C144.603 33.312 144.675 33.488 144.675 33.696C144.675 33.896 144.603 34.068 144.459 34.212C144.315 34.356 144.139 34.428 143.931 34.428ZM142.467 44.28C142.243 44.28 142.059 44.268 141.915 44.244C141.763 44.22 141.687 44.208 141.687 44.208V43.2C141.687 43.2 141.739 43.208 141.843 43.224C141.947 43.24 142.075 43.248 142.227 43.248C142.651 43.248 142.947 43.152 143.115 42.96C143.283 42.776 143.367 42.484 143.367 42.084V35.64H144.507V42.084C144.507 42.34 144.475 42.596 144.411 42.852C144.355 43.108 144.251 43.344 144.099 43.56C143.947 43.776 143.739 43.948 143.475 44.076C143.211 44.212 142.875 44.28 142.467 44.28ZM146.48 44.352V35.64H147.62V36.648H147.692C147.788 36.496 147.916 36.332 148.076 36.156C148.244 35.98 148.464 35.832 148.736 35.712C149.008 35.584 149.344 35.52 149.744 35.52C150.224 35.52 150.644 35.616 151.004 35.808C151.364 35.992 151.664 36.244 151.904 36.564C152.144 36.876 152.324 37.228 152.444 37.62C152.564 38.012 152.624 38.412 152.624 38.82C152.624 39.228 152.564 39.628 152.444 40.02C152.324 40.412 152.144 40.768 151.904 41.088C151.664 41.4 151.364 41.652 151.004 41.844C150.644 42.028 150.224 42.12 149.744 42.12C149.344 42.12 149.008 42.056 148.736 41.928C148.464 41.8 148.244 41.648 148.076 41.472C147.916 41.296 147.788 41.136 147.692 40.992H147.62V44.352H146.48ZM147.644 38.82C147.644 39.204 147.712 39.576 147.848 39.936C147.992 40.288 148.204 40.58 148.484 40.812C148.772 41.036 149.128 41.148 149.552 41.148C149.984 41.148 150.34 41.036 150.62 40.812C150.908 40.58 151.12 40.288 151.256 39.936C151.4 39.576 151.472 39.204 151.472 38.82C151.472 38.428 151.4 38.056 151.256 37.704C151.12 37.352 150.908 37.064 150.62 36.84C150.34 36.608 149.984 36.492 149.552 36.492C149.128 36.492 148.772 36.608 148.484 36.84C148.204 37.064 147.992 37.352 147.848 37.704C147.712 38.056 147.644 38.428 147.644 38.82ZM157.189 44.52C156.661 44.52 156.221 44.448 155.869 44.304C155.517 44.168 155.233 43.992 155.017 43.776C154.809 43.568 154.653 43.36 154.549 43.152C154.445 42.944 154.377 42.768 154.345 42.624C154.313 42.488 154.297 42.42 154.297 42.42H155.437C155.437 42.42 155.457 42.476 155.497 42.588C155.537 42.7 155.613 42.828 155.725 42.972C155.845 43.116 156.021 43.244 156.253 43.356C156.485 43.468 156.797 43.524 157.189 43.524C157.653 43.524 158.017 43.432 158.281 43.248C158.545 43.072 158.733 42.84 158.845 42.552C158.965 42.264 159.025 41.96 159.025 41.64V40.908H158.965C158.885 41.044 158.757 41.2 158.581 41.376C158.413 41.544 158.189 41.692 157.909 41.82C157.629 41.94 157.285 42 156.877 42C156.397 42 155.977 41.908 155.617 41.724C155.257 41.54 154.957 41.292 154.717 40.98C154.485 40.668 154.309 40.32 154.189 39.936C154.069 39.552 154.009 39.16 154.009 38.76C154.009 38.36 154.069 37.968 154.189 37.584C154.309 37.2 154.485 36.852 154.717 36.54C154.957 36.228 155.257 35.98 155.617 35.796C155.977 35.612 156.397 35.52 156.877 35.52C157.285 35.52 157.629 35.584 157.909 35.712C158.189 35.832 158.413 35.976 158.581 36.144C158.757 36.312 158.885 36.468 158.965 36.612H159.025V35.64H160.165V41.628C160.165 42.516 159.905 43.22 159.385 43.74C158.873 44.26 158.141 44.52 157.189 44.52ZM157.093 41.028C157.517 41.028 157.869 40.92 158.149 40.704C158.437 40.48 158.649 40.196 158.785 39.852C158.929 39.508 159.001 39.144 159.001 38.76C159.001 38.376 158.929 38.012 158.785 37.668C158.649 37.316 158.437 37.032 158.149 36.816C157.869 36.6 157.517 36.492 157.093 36.492C156.669 36.492 156.313 36.6 156.025 36.816C155.737 37.032 155.521 37.316 155.377 37.668C155.241 38.012 155.173 38.376 155.173 38.76C155.173 39.144 155.241 39.508 155.377 39.852C155.521 40.196 155.737 40.48 156.025 40.704C156.313 40.92 156.669 41.028 157.093 41.028ZM168.494 44.4C167.814 44.296 167.218 44.052 166.706 43.668C166.202 43.284 165.778 42.8 165.434 42.216C165.098 41.64 164.846 41.004 164.678 40.308C164.51 39.612 164.426 38.904 164.426 38.184C164.426 37.456 164.51 36.748 164.678 36.06C164.846 35.364 165.098 34.728 165.434 34.152C165.778 33.568 166.202 33.084 166.706 32.7C167.218 32.316 167.814 32.072 168.494 31.968V33.012C168.014 33.124 167.59 33.344 167.222 33.672C166.862 34 166.558 34.404 166.31 34.884C166.07 35.356 165.89 35.876 165.77 36.444C165.65 37.012 165.59 37.592 165.59 38.184C165.59 38.776 165.65 39.356 165.77 39.924C165.89 40.492 166.07 41.016 166.31 41.496C166.558 41.968 166.862 42.368 167.222 42.696C167.59 43.024 168.014 43.244 168.494 43.356V44.4ZM169.879 42V35.64H171.019V36.564H171.067C171.131 36.444 171.231 36.304 171.367 36.144C171.503 35.976 171.687 35.832 171.919 35.712C172.159 35.584 172.459 35.52 172.819 35.52C173.291 35.52 173.687 35.636 174.007 35.868C174.335 36.092 174.579 36.396 174.739 36.78H174.751C174.927 36.428 175.175 36.132 175.495 35.892C175.823 35.644 176.247 35.52 176.767 35.52C177.455 35.52 177.983 35.756 178.351 36.228C178.727 36.692 178.915 37.292 178.915 38.028V42H177.775V38.088C177.775 37.616 177.663 37.236 177.439 36.948C177.215 36.652 176.891 36.504 176.467 36.504C176.099 36.504 175.803 36.604 175.579 36.804C175.363 37.004 175.207 37.252 175.111 37.548C175.015 37.844 174.967 38.14 174.967 38.436V42H173.827V38.088C173.827 37.616 173.715 37.236 173.491 36.948C173.275 36.652 172.951 36.504 172.519 36.504C172.151 36.504 171.855 36.604 171.631 36.804C171.415 37.004 171.259 37.256 171.163 37.56C171.067 37.856 171.019 38.148 171.019 38.436V42H169.879ZM183.35 35.52C183.75 35.52 184.086 35.584 184.358 35.712C184.63 35.84 184.85 35.992 185.018 36.168C185.186 36.336 185.314 36.496 185.402 36.648H185.474V35.64H186.614V42H185.474V40.992H185.402C185.314 41.144 185.186 41.308 185.018 41.484C184.85 41.66 184.63 41.812 184.358 41.94C184.086 42.06 183.75 42.12 183.35 42.12C182.87 42.12 182.45 42.028 182.09 41.844C181.73 41.652 181.43 41.4 181.19 41.088C180.95 40.768 180.77 40.412 180.65 40.02C180.53 39.628 180.47 39.228 180.47 38.82C180.47 38.412 180.53 38.012 180.65 37.62C180.77 37.228 180.95 36.876 181.19 36.564C181.43 36.244 181.73 35.992 182.09 35.808C182.45 35.616 182.87 35.52 183.35 35.52ZM183.542 36.492C183.118 36.492 182.762 36.608 182.474 36.84C182.186 37.064 181.97 37.352 181.826 37.704C181.69 38.056 181.622 38.428 181.622 38.82C181.622 39.204 181.69 39.576 181.826 39.936C181.97 40.288 182.186 40.58 182.474 40.812C182.762 41.036 183.118 41.148 183.542 41.148C183.966 41.148 184.318 41.036 184.598 40.812C184.886 40.58 185.098 40.288 185.234 39.936C185.378 39.576 185.45 39.204 185.45 38.82C185.45 38.428 185.378 38.056 185.234 37.704C185.098 37.352 184.886 37.064 184.598 36.84C184.318 36.608 183.966 36.492 183.542 36.492ZM187.941 42L190.017 38.832L187.929 35.64H189.165L190.797 38.16L192.441 35.64H193.677L191.553 38.832L193.665 42H192.429L190.797 39.492L189.177 42H187.941ZM200.218 33.12V42H199.066V35.112L197.398 35.124V34.452L197.698 34.356C198.122 34.22 198.462 34.072 198.718 33.912C198.982 33.752 199.226 33.532 199.45 33.252L199.558 33.12H200.218ZM205.435 42.12C204.931 42.12 204.499 42.056 204.139 41.928C203.787 41.792 203.495 41.62 203.263 41.412C203.039 41.204 202.859 40.984 202.723 40.752C202.595 40.52 202.499 40.3 202.435 40.092C202.379 39.884 202.343 39.716 202.327 39.588C202.311 39.452 202.303 39.384 202.303 39.384H203.407C203.407 39.384 203.415 39.444 203.431 39.564C203.447 39.676 203.487 39.82 203.551 39.996C203.623 40.164 203.731 40.336 203.875 40.512C204.019 40.68 204.215 40.824 204.463 40.944C204.719 41.056 205.043 41.112 205.435 41.112C205.899 41.112 206.283 41.012 206.587 40.812C206.891 40.612 207.119 40.356 207.271 40.044C207.423 39.732 207.499 39.404 207.499 39.06C207.499 38.708 207.423 38.372 207.271 38.052C207.119 37.724 206.891 37.46 206.587 37.26C206.291 37.052 205.923 36.948 205.483 36.948C205.139 36.948 204.851 37.004 204.619 37.116C204.387 37.228 204.203 37.356 204.067 37.5C203.939 37.644 203.847 37.772 203.791 37.884C203.735 37.996 203.707 38.052 203.707 38.052H202.555L203.251 33.12H208.027V34.164H204.127L203.767 36.708H203.803C203.899 36.604 204.019 36.496 204.163 36.384C204.315 36.264 204.511 36.164 204.751 36.084C204.991 35.996 205.291 35.952 205.651 35.952C206.307 35.952 206.855 36.104 207.295 36.408C207.735 36.704 208.067 37.088 208.291 37.56C208.523 38.024 208.639 38.516 208.639 39.036C208.639 39.42 208.571 39.796 208.435 40.164C208.307 40.532 208.111 40.864 207.847 41.16C207.583 41.448 207.251 41.68 206.851 41.856C206.451 42.032 205.979 42.12 205.435 42.12ZM210.297 42V35.64H211.437V36.564H211.485C211.549 36.444 211.649 36.304 211.785 36.144C211.921 35.976 212.105 35.832 212.337 35.712C212.577 35.584 212.877 35.52 213.237 35.52C213.709 35.52 214.105 35.636 214.425 35.868C214.753 36.092 214.997 36.396 215.157 36.78H215.169C215.345 36.428 215.593 36.132 215.913 35.892C216.241 35.644 216.665 35.52 217.185 35.52C217.873 35.52 218.401 35.756 218.769 36.228C219.145 36.692 219.333 37.292 219.333 38.028V42H218.193V38.088C218.193 37.616 218.081 37.236 217.857 36.948C217.633 36.652 217.309 36.504 216.885 36.504C216.517 36.504 216.221 36.604 215.997 36.804C215.781 37.004 215.625 37.252 215.529 37.548C215.433 37.844 215.385 38.14 215.385 38.436V42H214.245V38.088C214.245 37.616 214.133 37.236 213.909 36.948C213.693 36.652 213.369 36.504 212.937 36.504C212.569 36.504 212.273 36.604 212.049 36.804C211.833 37.004 211.677 37.256 211.581 37.56C211.485 37.856 211.437 38.148 211.437 38.436V42H210.297ZM224.392 42.12C223.992 42.12 223.656 42.056 223.384 41.928C223.112 41.8 222.892 41.648 222.724 41.472C222.564 41.296 222.436 41.136 222.34 40.992H222.268V42H221.128V32.88H222.268V36.648H222.34C222.436 36.496 222.564 36.332 222.724 36.156C222.892 35.98 223.112 35.832 223.384 35.712C223.656 35.584 223.992 35.52 224.392 35.52C224.872 35.52 225.292 35.616 225.652 35.808C226.012 35.992 226.312 36.244 226.552 36.564C226.792 36.876 226.972 37.228 227.092 37.62C227.212 38.012 227.272 38.412 227.272 38.82C227.272 39.228 227.212 39.628 227.092 40.02C226.972 40.412 226.792 40.768 226.552 41.088C226.312 41.4 226.012 41.652 225.652 41.844C225.292 42.028 224.872 42.12 224.392 42.12ZM224.2 41.148C224.632 41.148 224.988 41.036 225.268 40.812C225.556 40.58 225.768 40.288 225.904 39.936C226.048 39.576 226.12 39.204 226.12 38.82C226.12 38.428 226.048 38.056 225.904 37.704C225.768 37.352 225.556 37.064 225.268 36.84C224.988 36.608 224.632 36.492 224.2 36.492C223.776 36.492 223.42 36.608 223.132 36.84C222.852 37.064 222.64 37.352 222.496 37.704C222.36 38.056 222.292 38.428 222.292 38.82C222.292 39.204 222.36 39.576 222.496 39.936C222.64 40.288 222.852 40.58 223.132 40.812C223.42 41.036 223.776 41.148 224.2 41.148ZM228.536 31.968C229.216 32.072 229.808 32.316 230.312 32.7C230.824 33.084 231.248 33.568 231.584 34.152C231.928 34.728 232.184 35.364 232.352 36.06C232.52 36.756 232.604 37.464 232.604 38.184C232.604 38.912 232.52 39.624 232.352 40.32C232.184 41.008 231.928 41.64 231.584 42.216C231.248 42.8 230.824 43.284 230.312 43.668C229.808 44.052 229.216 44.296 228.536 44.4V43.356C229.016 43.244 229.436 43.024 229.796 42.696C230.164 42.368 230.468 41.968 230.708 41.496C230.956 41.016 231.14 40.492 231.26 39.924C231.38 39.356 231.44 38.776 231.44 38.184C231.44 37.592 231.38 37.012 231.26 36.444C231.14 35.876 230.956 35.356 230.708 34.884C230.468 34.404 230.164 34 229.796 33.672C229.436 33.344 229.016 33.124 228.536 33.012V31.968Z" fill="#979797"/>
</svg>
