<svg width="24" height="24" viewBox="0 0 24 24" fill="none" xmlns="http://www.w3.org/2000/svg">
<path d="M21.49 12C21.81 10.98 22 9.88 22 8.69C22 5.6 19.51 3.09998 16.44 3.09998C14.62 3.09998 13.01 3.98003 12 5.34003C10.99 3.98003 9.37 3.09998 7.56 3.09998C4.49 3.09998 2 5.6 2 8.69C2 15.69 8.48 19.82 11.38 20.82C11.55 20.88 11.77 20.91 12 20.91" stroke="#1C1C1C" stroke-width="1.5" stroke-linecap="round" stroke-linejoin="round"/>
<path d="M13 15.6801H20.4C21.29 15.6801 22 16.4 22 17.28V19.05" stroke="#1C1C1C" stroke-width="1.5" stroke-miterlimit="10" stroke-linecap="round" stroke-linejoin="round"/>
<path d="M14.69 14L13 15.6801L14.69 17.3701" stroke="#1C1C1C" stroke-width="1.5" stroke-miterlimit="10" stroke-linecap="round" stroke-linejoin="round"/>
</svg>
