<svg width="19" height="13" viewBox="0 0 19 13" fill="none" xmlns="http://www.w3.org/2000/svg">
<path d="M0.21 10V1.12H1.386V4.972H5.622V1.12H6.798V10H5.622V6.028H1.386V10H0.21ZM9.34181 2.428C9.12581 2.428 8.94581 2.356 8.80181 2.212C8.66581 2.068 8.59781 1.896 8.59781 1.696C8.59781 1.488 8.66581 1.312 8.80181 1.168C8.94581 1.024 9.12581 0.952 9.34181 0.952C9.54981 0.952 9.72581 1.024 9.86981 1.168C10.0138 1.312 10.0858 1.488 10.0858 1.696C10.0858 1.896 10.0138 2.068 9.86981 2.212C9.72581 2.356 9.54981 2.428 9.34181 2.428ZM8.77781 10V3.64H9.91781V10H8.77781ZM11.8819 12.352V3.64H13.0219V4.648H13.0939C13.1899 4.496 13.3179 4.332 13.4779 4.156C13.6459 3.98 13.8659 3.832 14.1379 3.712C14.4099 3.584 14.7459 3.52 15.1459 3.52C15.6259 3.52 16.0459 3.616 16.4059 3.808C16.7659 3.992 17.0659 4.244 17.3059 4.564C17.5459 4.876 17.7259 5.228 17.8459 5.62C17.9659 6.012 18.0259 6.412 18.0259 6.82C18.0259 7.228 17.9659 7.628 17.8459 8.02C17.7259 8.412 17.5459 8.768 17.3059 9.088C17.0659 9.4 16.7659 9.652 16.4059 9.844C16.0459 10.028 15.6259 10.12 15.1459 10.12C14.7459 10.12 14.4099 10.056 14.1379 9.928C13.8659 9.8 13.6459 9.648 13.4779 9.472C13.3179 9.296 13.1899 9.136 13.0939 8.992H13.0219V12.352H11.8819ZM13.0459 6.82C13.0459 7.204 13.1139 7.576 13.2499 7.936C13.3939 8.288 13.6059 8.58 13.8859 8.812C14.1739 9.036 14.5299 9.148 14.9539 9.148C15.3859 9.148 15.7419 9.036 16.0219 8.812C16.3099 8.58 16.5219 8.288 16.6579 7.936C16.8019 7.576 16.8739 7.204 16.8739 6.82C16.8739 6.428 16.8019 6.056 16.6579 5.704C16.5219 5.352 16.3099 5.064 16.0219 4.84C15.7419 4.608 15.3859 4.492 14.9539 4.492C14.5299 4.492 14.1739 4.608 13.8859 4.84C13.6059 5.064 13.3939 5.352 13.2499 5.704C13.1139 6.056 13.0459 6.428 13.0459 6.82Z" fill="black"/>
</svg>
