<svg width="28" height="28" viewBox="0 0 28 28" fill="none" xmlns="http://www.w3.org/2000/svg">
<path d="M23.625 5.25H4.375C3.89175 5.25 3.5 5.64175 3.5 6.125V21.875C3.5 22.3582 3.89175 22.75 4.375 22.75H23.625C24.1082 22.75 24.5 22.3582 24.5 21.875V6.125C24.5 5.64175 24.1082 5.25 23.625 5.25Z" stroke="white" stroke-width="1.5" stroke-linecap="round" stroke-linejoin="round"/>
<path d="M3.5 18.375L9.00627 12.8687C9.08752 12.7875 9.18398 12.723 9.29014 12.6791C9.39629 12.6351 9.51008 12.6125 9.62498 12.6125C9.73989 12.6125 9.85367 12.6351 9.95983 12.6791C10.066 12.723 10.1625 12.7875 10.2437 12.8687L15.1313 17.7563C15.2125 17.8376 15.309 17.902 15.4151 17.946C15.5213 17.99 15.6351 18.0126 15.75 18.0126C15.8649 18.0126 15.9787 17.99 16.0848 17.946C16.191 17.902 16.2874 17.8376 16.3687 17.7563L18.6313 15.4937C18.7125 15.4125 18.809 15.348 18.9151 15.3041C19.0213 15.2601 19.1351 15.2375 19.25 15.2375C19.3649 15.2375 19.4787 15.2601 19.5848 15.3041C19.691 15.348 19.7874 15.4125 19.8687 15.4937L24.5 20.125" stroke="white" stroke-width="1.5" stroke-linecap="round" stroke-linejoin="round"/>
<path d="M17.0625 12.25C17.7874 12.25 18.375 11.6624 18.375 10.9375C18.375 10.2126 17.7874 9.625 17.0625 9.625C16.3376 9.625 15.75 10.2126 15.75 10.9375C15.75 11.6624 16.3376 12.25 17.0625 12.25Z" fill="white"/>
</svg>
