<svg width="13" height="40" viewBox="0 0 13 40" fill="none" xmlns="http://www.w3.org/2000/svg">
<path d="M3 0.887734L11.88 0.887734L11.88 2.06373L4.032 2.06373L4.032 6.63573L3 6.63573L3 0.887734ZM2.88 10.6675C2.88 10.1475 2.972 9.69555 3.156 9.31155C3.348 8.93555 3.604 8.62355 3.924 8.37555C4.244 8.13555 4.596 7.95555 4.98 7.83555C5.372 7.71555 5.772 7.65555 6.18 7.65555C6.58 7.65555 6.976 7.71155 7.368 7.82355C7.76 7.94355 8.116 8.12355 8.436 8.36355C8.756 8.61155 9.008 8.91955 9.192 9.28755C9.384 9.66355 9.48 10.1075 9.48 10.6195C9.48 11.1635 9.356 11.6435 9.108 12.0595C8.86 12.4755 8.492 12.8035 8.004 13.0435C7.516 13.2835 6.904 13.4035 6.168 13.4035L5.832 13.4035L5.832 8.80755C5.472 8.83155 5.14 8.91555 4.836 9.05955C4.54 9.21155 4.3 9.42355 4.116 9.69555C3.94 9.96755 3.852 10.2915 3.852 10.6675C3.852 10.9955 3.904 11.2595 4.008 11.4595C4.12 11.6675 4.248 11.8315 4.392 11.9515C4.536 12.0715 4.66 12.1515 4.764 12.1915C4.876 12.2395 4.932 12.2635 4.932 12.2635L4.932 13.3315C4.932 13.3315 4.86 13.3115 4.716 13.2715C4.58 13.2315 4.412 13.1595 4.212 13.0555C4.012 12.9515 3.808 12.7995 3.6 12.5995C3.4 12.3995 3.228 12.1435 3.084 11.8315C2.948 11.5195 2.88 11.1315 2.88 10.6675ZM6.72 8.81955L6.72 12.2875C7.136 12.2715 7.472 12.1835 7.728 12.0235C7.992 11.8635 8.188 11.6595 8.316 11.4115C8.444 11.1635 8.508 10.8995 8.508 10.6195C8.508 10.1155 8.344 9.70355 8.016 9.38355C7.696 9.06355 7.264 8.87555 6.72 8.81955ZM3 14.9591L9.36 14.9591L9.36 16.0991L8.436 16.0991L8.436 16.1711C8.532 16.2271 8.664 16.3191 8.832 16.4471C9 16.5831 9.148 16.7751 9.276 17.0231C9.412 17.2711 9.48 17.5831 9.48 17.9591C9.48 18.4231 9.372 18.8191 9.156 19.1471C8.948 19.4751 8.664 19.7231 8.304 19.8911C7.944 20.0671 7.54 20.1551 7.092 20.1551L3 20.1551L3 19.0151L7.02 19.0151C7.444 19.0151 7.796 18.8951 8.076 18.6551C8.356 18.4231 8.496 18.0831 8.496 17.6351C8.496 17.2751 8.404 16.9831 8.22 16.7591C8.044 16.5351 7.808 16.3671 7.512 16.2551C7.224 16.1511 6.916 16.0991 6.588 16.0991L3 16.0991L3 14.9591ZM0.479999 24.898C0.479999 24.37 0.551999 23.93 0.695999 23.578C0.831999 23.226 1.008 22.942 1.224 22.726C1.432 22.518 1.64 22.362 1.848 22.258C2.056 22.154 2.232 22.086 2.376 22.054C2.512 22.022 2.58 22.006 2.58 22.006L2.58 23.146C2.58 23.146 2.524 23.166 2.412 23.206C2.3 23.246 2.172 23.322 2.028 23.434C1.884 23.554 1.756 23.73 1.644 23.962C1.532 24.194 1.476 24.506 1.476 24.898C1.476 25.362 1.568 25.726 1.752 25.99C1.928 26.254 2.16 26.442 2.448 26.554C2.736 26.674 3.04 26.734 3.36 26.734L4.092 26.734L4.092 26.674C3.956 26.594 3.8 26.466 3.624 26.29C3.456 26.122 3.308 25.898 3.18 25.618C3.06 25.338 3 24.994 3 24.586C3 24.106 3.092 23.686 3.276 23.326C3.46 22.966 3.708 22.666 4.02 22.426C4.332 22.194 4.68 22.018 5.064 21.898C5.448 21.778 5.84 21.718 6.24 21.718C6.64 21.718 7.032 21.778 7.416 21.898C7.8 22.018 8.148 22.194 8.46 22.426C8.772 22.666 9.02 22.966 9.204 23.326C9.388 23.686 9.48 24.106 9.48 24.586C9.48 24.994 9.416 25.338 9.288 25.618C9.168 25.898 9.024 26.122 8.856 26.29C8.688 26.466 8.532 26.594 8.388 26.674L8.388 26.734L9.36 26.734L9.36 27.874L3.372 27.874C2.484 27.874 1.78 27.614 1.26 27.094C0.739999 26.582 0.479999 25.85 0.479999 24.898ZM3.972 24.802C3.972 25.226 4.08 25.578 4.296 25.858C4.52 26.146 4.804 26.358 5.148 26.494C5.492 26.638 5.856 26.71 6.24 26.71C6.624 26.71 6.988 26.638 7.332 26.494C7.684 26.358 7.968 26.146 8.184 25.858C8.4 25.578 8.508 25.226 8.508 24.802C8.508 24.378 8.4 24.022 8.184 23.734C7.968 23.446 7.684 23.23 7.332 23.086C6.988 22.95 6.624 22.882 6.24 22.882C5.856 22.882 5.492 22.95 5.148 23.086C4.804 23.23 4.52 23.446 4.296 23.734C4.08 24.022 3.972 24.378 3.972 24.802ZM2.88 32.249C2.88 31.593 3.048 31.097 3.384 30.761C3.72 30.433 4.192 30.269 4.8 30.269L8.424 30.269L8.424 29.129L9.36 29.129L9.36 30.269L10.956 30.269L10.956 31.409L9.36 31.409L9.36 32.957L8.424 32.957L8.424 31.409L4.8 31.409C4.48 31.409 4.244 31.497 4.092 31.673C3.948 31.849 3.876 32.105 3.876 32.441C3.876 32.617 3.888 32.785 3.912 32.945C3.936 33.105 3.948 33.185 3.948 33.185L2.976 33.185C2.976 33.185 2.96 33.093 2.928 32.909C2.896 32.725 2.88 32.505 2.88 32.249ZM3 34.8018L12.12 34.8018L12.12 35.9418L8.436 35.9418L8.436 36.0138C8.532 36.0698 8.664 36.1618 8.832 36.2898C9 36.4258 9.148 36.6178 9.276 36.8658C9.412 37.1138 9.48 37.4258 9.48 37.8018C9.48 38.2658 9.372 38.6618 9.156 38.9898C8.948 39.3178 8.664 39.5658 8.304 39.7338C7.944 39.9098 7.54 39.9978 7.092 39.9978L3 39.9978L3 38.8578L7.02 38.8578C7.444 38.8578 7.796 38.7378 8.076 38.4978C8.356 38.2658 8.496 37.9258 8.496 37.4778C8.496 37.1178 8.404 36.8258 8.22 36.6018C8.044 36.3778 7.808 36.2098 7.512 36.0978C7.224 35.9938 6.916 35.9418 6.588 35.9418L3 35.9418L3 34.8018Z" fill="black"/>
</svg>
