<svg width="16" height="345" viewBox="0 0 16 345" fill="none" xmlns="http://www.w3.org/2000/svg">
<path d="M8.70711 0.292893C8.31658 -0.0976311 7.68342 -0.0976311 7.29289 0.292893L0.928932 6.65685C0.538408 7.04738 0.538408 7.68054 0.928932 8.07107C1.31946 8.46159 1.95262 8.46159 2.34315 8.07107L8 2.41421L13.6569 8.07107C14.0474 8.46159 14.6805 8.46159 15.0711 8.07107C15.4616 7.68054 15.4616 7.04738 15.0711 6.65685L8.70711 0.292893ZM7.29291 344.707C7.68343 345.098 8.3166 345.098 8.70712 344.707L15.0711 338.343C15.4616 337.953 15.4616 337.319 15.0711 336.929C14.6806 336.538 14.0474 336.538 13.6569 336.929L8.00001 342.586L2.34316 336.929C1.95264 336.538 1.31947 336.538 0.928947 336.929C0.538423 337.319 0.538423 337.953 0.928947 338.343L7.29291 344.707ZM7 1L7.00001 344L9.00001 344L9 1L7 1Z" fill="black"/>
</svg>
