<svg width="44" height="59" viewBox="0 0 44 59" fill="none" xmlns="http://www.w3.org/2000/svg">
<path d="M3.19612 0.0194194C2.65456 -0.0888926 2.12773 0.262324 2.01942 0.803884L0.254374 9.62911C0.146062 10.1707 0.497279 10.6975 1.03884 10.8058C1.5804 10.9141 2.10722 10.5629 2.21554 10.0213L3.78446 2.1767L11.6291 3.74563C12.1707 3.85394 12.6975 3.50272 12.8058 2.96116C12.9141 2.4196 12.5629 1.89278 12.0213 1.78446L3.19612 0.0194194ZM40.8039 58.9806C41.3454 59.0889 41.8723 58.7377 41.9806 58.1961L43.7456 49.3709C43.8539 48.8293 43.5027 48.3025 42.9612 48.1942C42.4196 48.0859 41.8928 48.4371 41.7845 48.9787L40.2155 56.8233L32.3709 55.2544C31.8293 55.1461 31.3025 55.4973 31.1942 56.0388C31.0859 56.5804 31.4371 57.1072 31.9787 57.2155L40.8039 58.9806ZM2.16795 1.5547L40.168 58.5547L41.8321 57.4453L3.83205 0.4453L2.16795 1.5547Z" fill="black"/>
</svg>
