<svg width="66" height="16" viewBox="0 0 66 16" fill="none" xmlns="http://www.w3.org/2000/svg">
<path d="M0.292893 7.29289C-0.0976311 7.68342 -0.0976311 8.31658 0.292893 8.70711L6.65685 15.0711C7.04738 15.4616 7.68054 15.4616 8.07107 15.0711C8.46159 14.6805 8.46159 14.0474 8.07107 13.6569L2.41421 8L8.07107 2.34315C8.46159 1.95262 8.46159 1.31946 8.07107 0.928932C7.68054 0.538408 7.04738 0.538408 6.65685 0.928932L0.292893 7.29289ZM65.7071 8.70711C66.0976 8.31658 66.0976 7.68342 65.7071 7.29289L59.3431 0.928932C58.9526 0.538408 58.3195 0.538408 57.9289 0.928932C57.5384 1.31946 57.5384 1.95262 57.9289 2.34315L63.5858 8L57.9289 13.6569C57.5384 14.0474 57.5384 14.6805 57.9289 15.0711C58.3195 15.4616 58.9526 15.4616 59.3431 15.0711L65.7071 8.70711ZM1 9H65V7H1V9Z" fill="black"/>
</svg>
