<svg width="116" height="16" viewBox="0 0 116 16" fill="none" xmlns="http://www.w3.org/2000/svg">
<path d="M0.625901 7.08623C0.235377 7.47675 0.235377 8.10992 0.625901 8.50044L6.98986 14.8644C7.38039 15.2549 8.01355 15.2549 8.40408 14.8644C8.7946 14.4739 8.7946 13.8407 8.40408 13.4502L2.74722 7.79333L8.40408 2.13648C8.7946 1.74596 8.7946 1.11279 8.40408 0.722267C8.01355 0.331743 7.38039 0.331743 6.98986 0.722267L0.625901 7.08623ZM115.23 8.50044C115.621 8.10992 115.621 7.47675 115.23 7.08623L108.866 0.722267C108.476 0.331743 107.842 0.331743 107.452 0.722267C107.061 1.11279 107.061 1.74596 107.452 2.13648L113.109 7.79333L107.452 13.4502C107.061 13.8407 107.061 14.4739 107.452 14.8644C107.842 15.2549 108.476 15.2549 108.866 14.8644L115.23 8.50044ZM1.33301 8.79333H114.523V6.79333H1.33301V8.79333Z" fill="black"/>
</svg>
