<svg width="14" height="14" viewBox="0 0 14 14" fill="none" xmlns="http://www.w3.org/2000/svg">
<g clip-path="url(#clip0_158_720)">
<path d="M13.8948 0.444999L13.8481 0.150884L13.554 0.104238C13.4907 0.094204 11.9794 -0.13883 9.95379 0.126303C8.76204 0.282316 7.63851 0.579767 6.61448 1.0104C5.3275 1.5516 4.19569 2.30528 3.25049 3.25051C2.30525 4.19572 1.55158 5.32756 1.01037 6.61451C0.57974 7.63854 0.282288 8.76204 0.126303 9.95379C-0.13883 11.9794 0.094204 13.4906 0.104238 13.554L0.150911 13.8481L0.444999 13.8948C0.485547 13.9012 1.11938 13.999 2.10183 13.999C2.65397 13.999 3.31635 13.9681 4.04518 13.8727C5.23692 13.7167 6.36045 13.4193 7.38451 12.9886C8.67146 12.4474 9.8033 11.6937 10.7485 10.7485C11.6937 9.80327 12.4474 8.67146 12.9886 7.38451C13.4193 6.36045 13.7167 5.23695 13.8727 4.04518C14.1378 2.01959 13.9048 0.50835 13.8948 0.444999ZM13.0594 3.93871C12.9129 5.05775 12.6347 6.11011 12.2325 7.06652C11.7327 8.25513 11.0383 9.29876 10.1685 10.1685C9.30221 11.0349 8.26319 11.7273 7.08044 12.2267C6.1275 12.629 5.07886 12.9081 3.96367 13.0561C2.93215 13.1931 2.032 13.1912 1.41878 13.1602L7.2895 7.28944L6.70955 6.7095L0.838284 12.5808C0.807387 11.9738 0.805501 11.0845 0.939585 10.0603C1.08605 8.94124 1.36428 7.88888 1.76648 6.93247C2.26629 5.74387 2.96074 4.70023 3.83051 3.83046C4.69684 2.96414 5.73585 2.27165 6.91861 1.77231C7.87155 1.36997 8.92019 1.09089 10.0354 0.942866C11.4358 0.756942 12.5948 0.826691 13.1211 0.878339C13.1726 1.40032 13.2419 2.54504 13.0594 3.93871Z" fill="black"/>
</g>
<defs>
<clipPath id="clip0_158_720">
<rect width="13.999" height="13.999" fill="white"/>
</clipPath>
</defs>
</svg>
