<svg width="14" height="14" viewBox="0 0 14 14" fill="none" xmlns="http://www.w3.org/2000/svg">
<g clip-path="url(#clip0_158_757)">
<path d="M13.8396 6.06935L11.4553 3.37142C11.4034 3.31269 11.3288 3.27905 11.2504 3.27905H2.74954C2.67118 3.27905 2.59656 3.31269 2.54466 3.37142L0.160337 6.06935C0.0891336 6.14993 0.0717704 6.26474 0.115958 6.3628C0.13261 6.39977 0.156891 6.4317 0.186423 6.45722C0.186997 6.45785 0.187434 6.45856 0.188009 6.45921L6.79541 13.9081C6.84731 13.9666 6.92176 14 6.99997 14C7.07817 14 7.15263 13.9665 7.20452 13.9081L13.8119 6.45921C13.8125 6.45858 13.813 6.45787 13.8135 6.45722C13.843 6.4317 13.8673 6.39974 13.884 6.3628C13.9282 6.26474 13.9108 6.14993 13.8396 6.06935ZM10.7656 3.8259L9.55037 5.78492L7.60295 3.8259H10.7656ZM8.97019 5.97698H5.02974L6.99997 3.99502L8.97019 5.97698ZM6.39698 3.82593L4.44956 5.78494L3.23438 3.82593H6.39698ZM2.70711 4.0134L3.92513 5.97698H0.97179L2.70711 4.0134ZM0.976384 6.52385H4.20781L6.44005 12.6833L0.976384 6.52385ZM7.57003 12.6719L9.12966 8.4508C9.182 8.30913 9.10959 8.15187 8.96795 8.09954C8.82623 8.04715 8.669 8.11958 8.61669 8.26125L7.00245 12.6302L4.7895 6.52385H13.0235L7.57003 12.6719ZM10.0748 5.97698L11.2928 4.0134L13.0281 5.97698H10.0748Z" fill="black"/>
<path d="M7 0C6.84901 0 6.72656 0.122418 6.72656 0.273438V1.682C6.72656 1.83302 6.84901 1.95543 7 1.95543C7.15099 1.95543 7.27344 1.83302 7.27344 1.682V0.273438C7.27344 0.122418 7.15099 0 7 0Z" fill="black"/>
<path d="M9.48993 1.08082C9.38315 0.974038 9.21007 0.974038 9.10321 1.08082L8.10718 2.07681C8.00041 2.18359 8.00041 2.35673 8.10718 2.46351C8.16061 2.51691 8.23058 2.5436 8.30056 2.5436C8.37053 2.5436 8.4405 2.51688 8.4939 2.46351L9.48993 1.46751C9.59671 1.36073 9.59671 1.18759 9.48993 1.08082Z" fill="black"/>
<path d="M5.83951 2.07681L4.84351 1.08082C4.73676 0.974038 4.56368 0.974038 4.45679 1.08082C4.35001 1.18759 4.35001 1.36073 4.45679 1.46751L5.45282 2.46351C5.50622 2.51691 5.57619 2.5436 5.64616 2.5436C5.71614 2.5436 5.78611 2.51688 5.83951 2.46351C5.94629 2.35673 5.94629 2.18359 5.83951 2.07681Z" fill="black"/>
<path d="M9.22656 7.61133C9.37758 7.61133 9.5 7.48891 9.5 7.33789C9.5 7.18688 9.37758 7.06445 9.22656 7.06445C9.07555 7.06445 8.95312 7.18688 8.95312 7.33789C8.95312 7.48891 9.07555 7.61133 9.22656 7.61133Z" fill="black"/>
</g>
<defs>
<clipPath id="clip0_158_757">
<rect width="14" height="14" fill="white"/>
</clipPath>
</defs>
</svg>
