<svg width="14" height="16" viewBox="0 0 14 16" fill="none" xmlns="http://www.w3.org/2000/svg">
<g clip-path="url(#clip0_158_604)">
<path d="M9.14252 0.162302C8.17343 0.044356 7.19802 -0.00988748 6.22222 -9.81013e-05C2.73311 -9.81013e-05 0 1.4055 0 3.1999V7.46657C0 8.90204 1.75856 10.1111 4.34907 10.5186C3.62505 11.0562 2.85972 11.6102 2.05307 12.1807C1.91781 12.2762 1.83465 12.4321 1.82897 12.6007C1.8233 12.7693 1.89578 12.9307 2.0243 13.0356L5.48385 15.8828C5.66728 16.0333 5.92582 16.0393 6.11567 15.8975C6.69485 15.4636 7.2603 15.0103 7.81096 14.545C8.34677 14.0915 8.86528 13.6261 9.36652 13.149C9.36911 13.146 9.37274 13.1452 9.37507 13.1423L9.37689 13.1391C9.86775 12.6724 10.3382 12.1981 10.7883 11.7162C10.7937 11.7108 10.801 11.7087 10.8059 11.7026C10.8109 11.6964 10.8101 11.6938 10.8129 11.6898C11.1432 11.3354 11.4652 10.9788 11.7693 10.6202C12.6332 9.60097 13.7081 8.33297 13.9129 6.7711C14.1219 5.17804 13.8333 2.81724 12.333 1.40657C11.3957 0.522302 10.1946 0.300702 9.14252 0.162302ZM6.22222 0.533235C9.31389 0.533235 11.9259 1.75457 11.9259 3.1999C11.9259 4.92817 8.58148 5.86657 6.22222 5.86657C3.13056 5.86657 0.518519 4.64524 0.518519 3.1999C0.518519 1.75457 3.13056 0.533235 6.22222 0.533235ZM0.518519 7.46657V4.49964C1.47 5.62844 3.63819 6.3999 6.22222 6.3999C7.58527 6.42259 8.93987 6.17591 10.2125 5.67324C8.6214 7.1828 6.94253 8.59145 5.18518 9.89137V8.53324C5.18518 8.38596 5.06911 8.26657 4.92593 8.26657C4.78274 8.26657 4.66667 8.38596 4.66667 8.53324V10.0266C4.22934 9.9678 3.79629 9.87925 3.37037 9.7615V8.26657C3.37037 8.11929 3.2543 7.9999 3.11111 7.9999C2.96793 7.9999 2.85185 8.11929 2.85185 8.26657V9.5999C2.49325 9.47638 2.14617 9.31993 1.81481 9.13244V7.46657C1.81481 7.31929 1.69874 7.1999 1.55556 7.1999C1.41237 7.1999 1.2963 7.31929 1.2963 7.46657V8.7815C0.803704 8.3863 0.518519 7.93457 0.518519 7.46657ZM5.80741 15.4666L2.34656 12.6204C2.74193 12.341 3.16504 12.0386 3.60422 11.7204C3.83224 11.8708 4.10568 11.9306 4.37344 11.8887C4.54111 11.8518 4.71612 11.8896 4.85525 11.9927C4.99438 12.0957 5.08465 12.2545 5.10378 12.4298C5.20806 13.0487 5.77347 13.4689 6.37752 13.3764C6.54541 13.3411 6.72001 13.3798 6.85888 13.4831C6.99774 13.5864 7.08814 13.7448 7.10811 13.9199C7.13703 14.0613 7.18631 14.1975 7.25433 14.3239C6.78274 14.7151 6.3 15.0978 5.80741 15.4666ZM13.4014 6.69857C13.3414 7.12019 13.2177 7.52957 13.0348 7.9119L12.6661 7.37857C12.5831 7.25854 12.4211 7.23048 12.3044 7.3159C12.1877 7.40132 12.1605 7.56787 12.2435 7.6879L12.7597 8.43457C12.5099 8.84801 12.2312 9.24229 11.9259 9.6143L11.2044 8.76577C11.1436 8.69346 11.0498 8.66015 10.9586 8.67847C10.8674 8.69679 10.7927 8.76394 10.7628 8.85446C10.7329 8.94499 10.7524 9.04504 10.814 9.1167L11.5858 10.0266C11.5166 10.109 11.4479 10.1903 11.3807 10.2692C11.1282 10.5674 10.8622 10.8639 10.591 11.1591L9.50211 10.1991C9.43237 10.1328 9.33298 10.1111 9.24304 10.1424C9.1531 10.1737 9.087 10.2531 9.07074 10.3493C9.05449 10.4455 9.09068 10.5432 9.16507 10.6039L10.2324 11.546C9.89152 11.9047 9.53633 12.2594 9.1713 12.61L7.9463 11.5306C7.8759 11.4686 7.77873 11.45 7.6914 11.4818C7.60406 11.5135 7.53982 11.5908 7.52288 11.6845C7.50594 11.7781 7.53886 11.874 7.60926 11.9359L8.78889 12.9743C8.42593 13.3138 8.04819 13.6463 7.66526 13.9743C7.64348 13.9138 7.62538 13.852 7.61107 13.7892C7.50706 13.1712 6.94221 12.7517 6.33915 12.8447C6.17068 12.8798 5.9956 12.8408 5.85639 12.7371C5.71717 12.6334 5.62654 12.4744 5.60648 12.2988C5.5039 11.6801 4.93756 11.2606 4.33456 11.3567C4.25702 11.3653 4.17884 11.3657 4.10122 11.358C7.05159 9.19804 10.5757 6.4087 11.9049 4.5239C12.2289 4.1721 12.4202 3.71292 12.4444 3.22897C12.4579 2.39057 11.8855 1.7255 11.2029 1.2591C11.4877 1.40004 11.7516 1.58196 11.9866 1.79937C13.2513 2.98924 13.6085 5.11724 13.4014 6.69857Z" fill="black"/>
<path d="M6.21414 4.80016C7.27477 4.80016 9.04499 4.48709 9.50103 3.49882C9.81058 2.82789 9.27314 2.13882 8.66751 1.71802C8.09598 1.3456 7.46664 1.07664 6.80681 0.922824C6.605 0.870181 6.39089 0.912274 6.22218 1.03776C6.11892 1.11427 6.03739 1.21774 5.98599 1.33749C4.18544 1.39802 2.85181 2.12496 2.85181 3.06682C2.85181 4.32416 4.89373 4.80016 6.21414 4.80016ZM8.11788 3.94682L8.2107 2.05189C8.26842 2.08745 8.32416 2.1238 8.37792 2.16096C9.3517 2.83616 9.33121 3.47882 8.11788 3.94682ZM6.4441 1.62229V1.61722C6.44853 1.55846 6.47794 1.50469 6.52447 1.47029C6.5686 1.43651 6.62523 1.42513 6.67847 1.43936C7.02869 1.52875 7.37167 1.6458 7.70436 1.78949L7.59081 4.11109C7.15421 4.21524 6.70743 4.26749 6.25925 4.26683L6.4441 1.62229ZM5.90692 1.87456L5.74125 4.24789C4.31247 4.14176 3.37033 3.57109 3.37033 3.06682C3.37033 2.53962 4.39829 1.94949 5.90692 1.87456Z" fill="black"/>
<path d="M6.99998 2.66675C6.8568 2.66675 6.74072 2.78614 6.74072 2.93341V3.20008C6.74072 3.34736 6.8568 3.46675 6.99998 3.46675C7.14317 3.46675 7.25924 3.34736 7.25924 3.20008V2.93341C7.25924 2.78614 7.14317 2.66675 6.99998 2.66675Z" fill="black"/>
<path d="M4.3103 12.8585C4.19847 12.7665 4.03527 12.7851 3.94578 12.9001C3.85629 13.0152 3.8744 13.183 3.98622 13.2751L5.28252 14.3417C5.39435 14.4338 5.55755 14.4152 5.64704 14.3001C5.73653 14.1851 5.71842 14.0173 5.60659 13.9252L4.3103 12.8585Z" fill="black"/>
</g>
<defs>
<clipPath id="clip0_158_604">
<rect width="14" height="16" fill="white"/>
</clipPath>
</defs>
</svg>
