<svg width="56" height="74" viewBox="0 0 56 74" fill="none" xmlns="http://www.w3.org/2000/svg">
<path d="M4.78524 8.32495C4.49951 7.9001 4.30706 7.49927 4.2079 7.12248C4.11984 6.74786 4.09514 6.40293 4.13379 6.0877C4.17909 5.76801 4.25781 5.48368 4.36995 5.23471C4.4821 4.98575 4.60438 4.77335 4.73679 4.59753C4.87585 4.41724 4.99178 4.28142 5.0846 4.19007C5.18852 4.10089 5.24048 4.05631 5.24048 4.05631L5.91018 5.05205C5.91018 5.05205 5.87041 5.09326 5.79087 5.17568C5.71133 5.2581 5.62194 5.37606 5.52272 5.52956C5.42796 5.6897 5.34998 5.88195 5.28876 6.1063C5.23419 6.32618 5.23187 6.57359 5.2818 6.84852C5.33173 7.12345 5.46608 7.42355 5.68485 7.74883C6.01523 8.24006 6.39259 8.55027 6.81691 8.67946C7.24786 8.80418 7.65254 8.73929 8.03092 8.48481C8.35619 8.26604 8.53478 7.98685 8.56668 7.64724C8.60305 7.31427 8.53708 6.91515 8.36877 6.44989L7.95145 5.31333C7.80558 4.9101 7.70854 4.50778 7.66031 4.10637C7.62318 3.70713 7.67048 3.33307 7.80219 2.98418C7.945 2.63746 8.20891 2.33463 8.59393 2.07568C9.02542 1.78547 9.46528 1.6439 9.91351 1.65095C10.3617 1.658 10.7883 1.7905 11.1932 2.04846C11.6047 2.30195 11.9667 2.66103 12.2792 3.12571C12.5828 3.57712 12.7654 3.99906 12.8269 4.39154C12.8884 4.78402 12.8765 5.13908 12.7913 5.45672C12.7127 5.76989 12.5995 6.03883 12.4518 6.26353C12.3106 6.48377 12.1793 6.65404 12.0578 6.77435C11.9362 6.89466 11.8755 6.95482 11.8755 6.95482L11.2325 5.99891C11.2325 5.99891 11.2834 5.94545 11.385 5.83853C11.4866 5.73161 11.5803 5.57702 11.666 5.37476C11.7584 5.16804 11.7951 4.9216 11.7762 4.63545C11.7572 4.3493 11.6295 4.03031 11.3928 3.67848C11.0714 3.20052 10.7152 2.91463 10.3243 2.82082C9.93789 2.73363 9.59863 2.78827 9.30655 2.98471C9.04102 3.1633 8.89001 3.40465 8.85353 3.70878C8.82368 4.00844 8.87946 4.35657 9.02086 4.75316L9.47184 5.98277C9.63339 6.42366 9.72724 6.85706 9.75338 7.28296C9.78616 7.70441 9.72341 8.0985 9.56515 8.46525C9.41353 8.82754 9.13857 9.14262 8.74027 9.4105C8.34197 9.67838 7.90658 9.82659 7.43408 9.85514C6.96606 9.89033 6.49967 9.78461 6.03494 9.53799C5.5813 9.29355 5.16474 8.8892 4.78524 8.32495ZM7.47498 12.1092L15.0493 7.02943L15.6788 7.96543L8.11119 13.0551L7.47498 12.1092ZM10.6293 17.0143C10.3391 16.5828 10.1632 16.1564 10.1016 15.7351C10.0511 15.3159 10.0894 14.9142 10.2165 14.5298C10.3481 14.152 10.5397 13.8062 10.7914 13.4924C11.0497 13.174 11.3482 12.901 11.6867 12.6733C12.0186 12.4501 12.3785 12.2755 12.7662 12.1497C13.1585 12.0305 13.5544 11.9812 13.9538 12.0018C14.3578 12.029 14.7388 12.1439 15.0968 12.3466C15.466 12.5514 15.7934 12.8663 16.0792 13.2911C16.3827 13.7425 16.5477 14.21 16.5741 14.6936C16.6005 15.1772 16.4782 15.6548 16.2072 16.1263C15.9362 16.5977 15.4953 17.0389 14.8846 17.4496L14.6058 17.6371L12.0408 13.8234C11.7555 14.0443 11.5269 14.2992 11.355 14.5884C11.1942 14.8797 11.1134 15.1896 11.1125 15.5179C11.1183 15.8419 11.2261 16.1598 11.4359 16.4718C11.619 16.744 11.8094 16.934 12.0073 17.042C12.2164 17.1521 12.4141 17.2167 12.6006 17.2359C12.787 17.2551 12.9346 17.2523 13.0432 17.2275C13.1629 17.2048 13.2228 17.1934 13.2228 17.1934L13.8188 18.0797C13.8188 18.0797 13.7479 18.1032 13.6061 18.1504C13.4709 18.1931 13.2913 18.2271 13.0673 18.2525C12.8433 18.2778 12.5892 18.2655 12.305 18.2156C12.0274 18.1613 11.7418 18.0448 11.4482 17.8663C11.1613 17.6833 10.8883 17.3993 10.6293 17.0143ZM12.7844 13.3378L14.7198 16.2155C15.0561 15.9701 15.2858 15.7095 15.4089 15.4339C15.5387 15.1538 15.5875 14.8751 15.5553 14.5979C15.5231 14.3207 15.4289 14.0659 15.2726 13.8336C14.9913 13.4154 14.6253 13.165 14.1746 13.0825C13.7304 12.9956 13.2671 13.0807 12.7844 13.3378ZM14.6057 22.9265C14.3155 22.495 14.1396 22.0686 14.0779 21.6473C14.0274 21.2281 14.0657 20.8264 14.1929 20.442C14.3244 20.0643 14.5161 19.7185 14.7677 19.4046C15.026 19.0862 15.3245 18.8132 15.663 18.5855C15.9949 18.3623 16.3548 18.1878 16.7426 18.0619C17.1348 17.9427 17.5307 17.8934 17.9302 17.914C18.3341 17.9412 18.7151 18.0561 19.0731 18.2588C19.4423 18.4636 19.7697 18.7785 20.0555 19.2033C20.3591 19.6548 20.5241 20.1223 20.5504 20.6058C20.5768 21.0894 20.4545 21.567 20.1835 22.0385C19.9125 22.51 19.4716 22.9511 18.8609 23.3618L18.5821 23.5494L16.0172 19.7357C15.7318 19.9565 15.5032 20.2115 15.3313 20.5006C15.1706 20.7919 15.0897 21.1018 15.0888 21.4302C15.0946 21.7541 15.2024 22.0721 15.4122 22.3841C15.5953 22.6562 15.7858 22.8463 15.9837 22.9542C16.1927 23.0643 16.3904 23.1289 16.5769 23.1481C16.7634 23.1674 16.9109 23.1645 17.0195 23.1397C17.1392 23.117 17.1991 23.1057 17.1991 23.1057L17.7951 23.9919C17.7951 23.9919 17.7242 24.0155 17.5824 24.0626C17.4472 24.1053 17.2676 24.1394 17.0437 24.1647C16.8197 24.19 16.5655 24.1777 16.2813 24.1278C16.0038 24.0735 15.7182 23.9571 15.4246 23.7785C15.1376 23.5955 14.8646 23.3115 14.6057 22.9265ZM16.7607 19.25L18.6961 22.1277C19.0324 21.8823 19.2621 21.6218 19.3852 21.3461C19.515 21.066 19.5638 20.7874 19.5316 20.5101C19.4994 20.2329 19.4052 19.9781 19.2489 19.7458C18.9677 19.3276 18.6016 19.0772 18.1509 18.9948C17.7068 18.9078 17.2434 18.9929 16.7607 19.25ZM18.0879 27.8891L22.0126 22.3283L22.6756 23.314L19.5912 27.63L24.7315 26.371L25.4012 27.3667L18.7643 28.8948L18.0879 27.8891ZM22.2117 34.2356C21.9215 33.8041 21.7456 33.3777 21.684 32.9564C21.6335 32.5372 21.6718 32.1355 21.7989 31.7511C21.9305 31.3734 22.1221 31.0275 22.3738 30.7137C22.6321 30.3953 22.9305 30.1223 23.2691 29.8946C23.601 29.6714 23.9608 29.4968 24.3486 29.371C24.7409 29.2518 25.1367 29.2025 25.5362 29.2231C25.9401 29.2503 26.3211 29.3652 26.6792 29.5679C27.0483 29.7727 27.3758 30.0876 27.6615 30.5124C27.9651 30.9638 28.1301 31.4313 28.1565 31.9149C28.1828 32.3985 28.0605 32.8761 27.7895 33.3476C27.5185 33.8191 27.0777 34.2602 26.467 34.6709L26.1882 34.8584L23.6232 31.0447C23.3379 31.2656 23.1093 31.5205 22.9374 31.8097C22.7766 32.101 22.6958 32.4109 22.6949 32.7393C22.7006 33.0632 22.8084 33.3811 23.0183 33.6931C23.2013 33.9653 23.3918 34.1554 23.5897 34.2633C23.7987 34.3734 23.9965 34.438 24.1829 34.4572C24.3694 34.4764 24.5169 34.4736 24.6255 34.4488C24.7453 34.4261 24.8051 34.4148 24.8051 34.4148L25.4012 35.301C25.4012 35.301 25.3303 35.3245 25.1884 35.3717C25.0533 35.4144 24.8737 35.4484 24.6497 35.4738C24.4257 35.4991 24.1716 35.4868 23.8874 35.4369C23.6098 35.3826 23.3242 35.2661 23.0306 35.0876C22.7436 34.9046 22.4707 34.6206 22.2117 34.2356ZM24.3668 30.5591L26.3022 33.4368C26.6384 33.1914 26.8681 32.9308 26.9913 32.6552C27.121 32.3751 27.1698 32.0964 27.1376 31.8192C27.1055 31.542 27.0112 31.2872 26.855 31.0549C26.5737 30.6367 26.2077 30.3863 25.7569 30.3038C25.3128 30.2169 24.8494 30.302 24.3668 30.5591ZM26.3168 40.1242L33.6853 35.1684L34.3416 36.1442L27.8294 40.5241L30.381 44.3179L29.5246 44.8938L26.3168 40.1242ZM31.6751 48.3063C31.3849 47.8748 31.209 47.4484 31.1474 47.0271C31.0969 46.6079 31.1352 46.2062 31.2623 45.8218C31.3939 45.4441 31.5855 45.0983 31.8372 44.7844C32.0955 44.466 32.3939 44.193 32.7325 43.9653C33.0644 43.7421 33.4242 43.5676 33.812 43.4417C34.2043 43.3225 34.6001 43.2732 34.9996 43.2938C35.4035 43.321 35.7845 43.4359 36.1426 43.6386C36.5117 43.8434 36.8392 44.1583 37.1249 44.5831C37.4285 45.0345 37.5935 45.502 37.6199 45.9856C37.6463 46.4692 37.5239 46.9468 37.2529 47.4183C36.9819 47.8898 36.5411 48.3309 35.9304 48.7416L35.6516 48.9291L33.0866 45.1154C32.8013 45.3363 32.5727 45.5913 32.4008 45.8804C32.24 46.1717 32.1592 46.4816 32.1583 46.81C32.164 47.1339 32.2718 47.4519 32.4817 47.7639C32.6647 48.036 32.8552 48.2261 33.0531 48.334C33.2621 48.4441 33.4599 48.5087 33.6463 48.5279C33.8328 48.5471 33.9803 48.5443 34.089 48.5195C34.2087 48.4968 34.2685 48.4855 34.2685 48.4855L34.8646 49.3717C34.8646 49.3717 34.7937 49.3953 34.6518 49.4424C34.5167 49.4851 34.3371 49.5192 34.1131 49.5445C33.8891 49.5698 33.635 49.5575 33.3508 49.5076C33.0732 49.4533 32.7876 49.3369 32.494 49.1583C32.207 48.9753 31.9341 48.6913 31.6751 48.3063ZM33.8302 44.6298L35.7656 47.5075C36.1018 47.2621 36.3315 47.0016 36.4547 46.7259C36.5844 46.4458 36.6332 46.1672 36.601 45.8899C36.5689 45.6127 36.4746 45.3579 36.3184 45.1256C36.0371 44.7074 35.6711 44.457 35.2203 44.3746C34.7762 44.2876 34.3128 44.3727 33.8302 44.6298ZM34.1697 51.8004L39.4472 48.251L40.0834 49.197L39.3167 49.7127L39.3569 49.7724C39.4678 49.7653 39.6286 49.768 39.8395 49.7804C40.0548 49.7995 40.2848 49.8763 40.5294 50.0106C40.7806 50.1405 41.0112 50.3614 41.221 50.6734C41.48 51.0585 41.6113 51.4473 41.6152 51.84C41.6256 52.2283 41.5284 52.5926 41.3234 52.9329C41.1229 53.2798 40.8368 53.5783 40.465 53.8283L37.0695 56.112L36.4333 55.1661L39.7691 52.9226C40.1209 52.6859 40.346 52.3899 40.4444 52.0345C40.5473 51.6857 40.4737 51.3255 40.2237 50.9537C40.0228 50.655 39.7835 50.4641 39.5058 50.3809C39.2347 50.2932 38.9451 50.2855 38.637 50.3578C38.34 50.4322 38.0554 50.561 37.7832 50.744L34.806 52.7464L34.1697 51.8004ZM37.6254 61.454C37.3307 61.0158 37.1449 60.6106 37.068 60.2381C36.9844 59.8701 36.9719 59.5362 37.0306 59.2365C37.0871 58.9478 37.1727 58.7023 37.2872 58.4999C37.4018 58.2975 37.5099 58.1429 37.6115 58.0359C37.7065 57.9335 37.754 57.8823 37.754 57.8823L38.3902 58.8282C38.3902 58.8282 38.3549 58.8761 38.2843 58.9718C38.2137 59.0675 38.1499 59.202 38.0929 59.3753C38.0404 59.5552 38.0324 59.7727 38.0689 60.0277C38.1055 60.2827 38.2331 60.5729 38.4519 60.8981C38.7108 61.2831 38.9903 61.5338 39.2903 61.6502C39.5837 61.7711 39.8811 61.7976 40.1826 61.7298C40.4886 61.6686 40.7743 61.5488 41.0398 61.3702L41.6472 60.9617L41.6137 60.9119C41.4562 60.9214 41.2554 60.9023 41.0111 60.8544C40.7779 60.8088 40.5301 60.7055 40.2676 60.5446C40.0118 60.3792 39.77 60.1273 39.5423 59.7887C39.2745 59.3904 39.1164 58.9906 39.0682 58.5892C39.02 58.1877 39.0583 57.8004 39.1833 57.4271C39.3127 57.0605 39.5032 56.7203 39.7549 56.4064C40.0066 56.0925 40.2984 55.8239 40.6303 55.6007C40.9622 55.3775 41.321 55.2085 41.7066 55.0938C42.0922 54.979 42.4792 54.9309 42.8675 54.9493C43.2604 54.9743 43.6336 55.0848 43.9872 55.2809C44.3407 55.4769 44.6515 55.7741 44.9194 56.1724C45.1471 56.5109 45.2859 56.8321 45.336 57.1358C45.3927 57.4352 45.3982 57.7014 45.3525 57.9345C45.3114 58.1743 45.2534 58.3676 45.1785 58.5144L45.212 58.5642L46.0185 58.0217L46.6548 58.9677L41.686 62.3094C40.9491 62.805 40.2199 62.9822 39.4982 62.8409C38.781 62.7062 38.1567 62.2439 37.6254 61.454ZM40.4694 59.4255C40.7061 59.7773 40.9921 60.0091 41.3276 60.1209C41.6742 60.2349 42.0282 60.2523 42.3895 60.1732C42.7554 60.1007 43.0976 59.9573 43.4162 59.743C43.7349 59.5287 43.9967 59.2658 44.2018 58.9543C44.418 58.645 44.5353 58.3106 44.5538 57.9511C44.5768 57.5982 44.47 57.2459 44.2334 56.894C43.9967 56.5422 43.7084 56.3071 43.3685 56.1886C43.0285 56.0702 42.6723 56.0495 42.2999 56.1264C41.9385 56.2056 41.5985 56.3523 41.2799 56.5666C40.9612 56.7809 40.6972 57.0404 40.4876 57.3453C40.2825 57.6567 40.1674 57.9945 40.1423 58.3585C40.1238 58.718 40.2328 59.0737 40.4694 59.4255ZM43.7193 66.2143C43.3532 65.6699 43.2158 65.1646 43.3071 64.6983C43.4029 64.2386 43.703 63.8391 44.2075 63.4998L47.2146 61.4773L46.5784 60.5314L47.3551 60.009L47.9913 60.9549L49.3157 60.0642L49.9519 61.0102L48.6275 61.9009L49.4914 63.1854L48.7148 63.7078L47.8509 62.4233L44.8437 64.4458C44.5782 64.6243 44.4315 64.8291 44.4036 65.0599C44.3823 65.2863 44.4654 65.539 44.6529 65.8178C44.7512 65.9638 44.8549 66.0965 44.9641 66.2159C45.0733 66.3353 45.1279 66.3949 45.1279 66.3949L44.3213 66.9374C44.3213 66.9374 44.2567 66.87 44.1275 66.7352C43.9982 66.6003 43.8622 66.4267 43.7193 66.2143ZM45.2436 68.2656L52.8112 63.1759L53.4474 64.1219L50.3905 66.1778L50.4307 66.2376C50.5416 66.2305 50.7025 66.2331 50.9133 66.2456C51.1286 66.2647 51.3586 66.3414 51.6032 66.4758C51.8544 66.6057 52.085 66.8266 52.2948 67.1386C52.5538 67.5236 52.6852 67.9125 52.689 68.3052C52.6994 68.6935 52.6022 69.0577 52.3972 69.3981C52.1967 69.745 51.9106 70.0435 51.5388 70.2935L48.1434 72.5772L47.5071 71.6312L50.8429 69.3877C51.1947 69.1511 51.4198 68.8551 51.5182 68.4997C51.6211 68.1509 51.5475 67.7906 51.2975 67.4189C51.0966 67.1202 50.8573 66.9292 50.5796 66.846C50.3085 66.7584 50.019 66.7507 49.7108 66.8229C49.4138 66.8974 49.1292 67.0261 48.8571 67.2092L45.8798 69.2116L45.2436 68.2656Z" fill="black"/>
</svg>
