<svg width="22" height="22" viewBox="0 0 22 22" fill="none" xmlns="http://www.w3.org/2000/svg">
<path d="M14.1075 4.776L15.3999 7.36099C15.5741 7.71849 16.0416 8.05765 16.4358 8.13099L18.7733 8.51598C20.2675 8.76348 20.6158 9.84516 19.5433 10.9268L17.7191 12.751C17.4166 13.0535 17.2425 13.6493 17.3433 14.0802L17.8658 16.3352C18.2783 18.1135 17.325 18.8102 15.7575 17.8752L13.5666 16.5735C13.1724 16.3352 12.5125 16.3352 12.1183 16.5735L9.92744 17.8752C8.35994 18.801 7.40662 18.1135 7.81912 16.3352L8.34163 14.0802C8.44246 13.6585 8.26829 13.0627 7.96579 12.751L6.14163 10.9268C5.06913 9.85432 5.41746 8.77265 6.91163 8.51598L9.24912 8.13099C9.64328 8.06682 10.1108 7.71849 10.285 7.36099L11.5775 4.776C12.265 3.3735 13.4016 3.3735 14.1075 4.776Z" stroke="#1C1C1C" stroke-width="1.2" stroke-linecap="round" stroke-linejoin="round"/>
<path d="M7.3335 4.5835H1.8335" stroke="#1C1C1C" stroke-width="1.2" stroke-linecap="round" stroke-linejoin="round"/>
<path d="M4.5835 17.4165H1.8335" stroke="#1C1C1C" stroke-width="1.2" stroke-linecap="round" stroke-linejoin="round"/>
<path d="M2.75016 11H1.8335" stroke="#1C1C1C" stroke-width="1.2" stroke-linecap="round" stroke-linejoin="round"/>
</svg>
