<svg width="100" height="14" viewBox="0 0 100 14" fill="none" xmlns="http://www.w3.org/2000/svg">
<path fill-rule="evenodd" clip-rule="evenodd" d="M23.0209 3.64856L23.4126 5.99851H23.1888C22.8531 4.54378 21.5662 3.92832 20.1115 3.92832C19.8877 3.92832 19.6639 3.92832 19.3841 4.04022V8.0687H19.9436C21.1186 8.0687 21.79 7.62109 21.79 6.66992H22.0138V9.97104H21.846C21.734 9.24367 21.5102 8.34845 19.9996 8.34845H19.4401V12.0972C19.4401 12.7126 19.7198 13.0483 20.615 13.0483V13.2722H16.6425V13.0483C17.5377 13.0483 17.8175 12.7126 17.8175 12.0972V4.82353C17.8175 4.26402 17.4818 3.87236 16.5865 3.87236V3.64856H23.0209Z" fill="#333333"/>
<path fill-rule="evenodd" clip-rule="evenodd" d="M31.0219 3.64856L31.4136 5.99851H31.1898C30.854 4.54378 29.5672 3.92832 28.1124 3.92832C27.8886 3.92832 27.6648 3.92832 27.3851 4.04022V8.0687H27.9446C29.1196 8.0687 29.791 7.62109 29.791 6.66992H30.0148V9.97104H29.8469C29.735 9.24367 29.5112 8.34845 28.0005 8.34845H27.441V12.0972C27.441 12.7126 27.7208 13.0483 28.616 13.0483V13.2722H24.6435V13.0483C25.5387 13.0483 25.8184 12.7126 25.8184 12.0972V4.82353C25.8184 4.26402 25.4827 3.87236 24.5875 3.87236V3.64856H31.0219Z" fill="#333333"/>
<path fill-rule="evenodd" clip-rule="evenodd" d="M14.6843 3.64856V3.87236C14.0129 3.87236 13.6212 4.20807 13.6212 4.82353V12.0412C13.6212 12.7126 14.0688 12.9924 14.6843 12.9924V13.2162H10.9355V12.9924C11.607 12.9364 11.9986 12.6567 11.9986 12.0412V4.82353C11.9986 4.20807 11.607 3.87236 10.9355 3.87236V3.64856H14.6843Z" fill="#333333"/>
<path fill-rule="evenodd" clip-rule="evenodd" d="M9.81648 1.01886L10.2081 3.92832H10.0403C9.48077 2.41764 8.4177 1.41052 6.45941 1.41052V11.6496C6.45941 12.7686 7.07487 13.1043 7.74629 13.1043V13.3281H3.2702V13.1043C3.88566 13.1043 4.66898 12.7686 4.66898 11.6496V1.35457C2.65474 1.35457 1.70357 2.30574 0.976203 3.92832H0.80835L1.14406 1.01886H9.81648Z" fill="#333333"/>
<path fill-rule="evenodd" clip-rule="evenodd" d="M64.4807 10.1389C64.4807 11.6496 65.5438 12.7686 67.1104 12.7686C67.7818 12.7686 68.5652 12.4329 69.1247 11.8174L65.9914 7.84488C65.2081 8.01273 64.4807 8.852 64.4807 10.1389ZM68.733 4.15211C68.733 2.92118 68.1735 2.30572 67.1104 2.30572C66.0474 2.30572 65.4319 2.92118 65.4319 3.9283C65.4319 5.10328 66.9985 6.66991 66.9985 6.66991C68.2295 5.99849 68.733 5.27113 68.733 4.15211ZM67.2223 6.94966L69.908 10.3067C69.908 10.3067 70.1877 9.74722 70.2437 9.24366C70.2437 8.6282 69.908 8.40439 69.4044 8.29249V8.12464H72.3139C72.3139 8.12464 72.3698 8.29249 72.3139 8.29249C71.7544 8.40439 71.3627 8.57224 70.9711 8.852C70.6354 9.24366 70.4675 9.57936 70.1318 10.4746L71.3627 11.9853C71.9222 12.6007 72.5936 12.9364 73.377 12.9924V13.2162H70.1877V12.9924L69.2925 11.9293C68.5652 12.6567 67.3342 13.3281 66.1593 13.3281C64.2569 13.3281 63.026 12.265 63.026 10.8103C63.026 9.18771 64.5367 8.18059 65.7117 7.39727C65.7117 7.39727 64.4248 5.94254 64.4248 4.59972C64.4248 3.08904 65.5998 1.91406 67.1664 1.91406C68.5652 1.91406 69.6842 2.92118 69.6842 4.15211C69.6842 5.66279 68.0616 6.27825 67.2223 6.94966Z" fill="#333333"/>
<path fill-rule="evenodd" clip-rule="evenodd" d="M86.5814 0.795044L86.6933 4.65567H86.4695C86.0778 2.47358 84.6231 1.24265 82.8327 1.24265C80.6506 1.24265 79.1399 3.76045 79.1399 7.17347C79.1399 11.3698 80.8184 13.1043 83.1124 13.1043C85.5183 13.1043 86.4695 10.8662 86.6933 9.29961H86.9171V10.9781C86.5254 11.7055 85.2945 13.3281 82.7767 13.3281C79.5875 13.3281 77.0697 10.6984 77.0697 7.17347C77.0697 3.98426 79.8673 1.01885 82.7767 1.01885C84.4552 1.01885 84.9029 1.74621 85.5743 1.74621C86.0778 1.74621 86.3016 1.41051 86.3016 0.795044H86.5814V0.795044Z" fill="#333333"/>
<path fill-rule="evenodd" clip-rule="evenodd" d="M98.2752 11.4817C98.7788 11.4817 99.1704 11.8733 99.1704 12.3769C99.1704 12.8805 98.7788 13.2162 98.2752 13.2162C97.7717 13.2162 97.38 12.8805 97.38 12.3769C97.38 11.8733 97.7717 11.4817 98.2752 11.4817Z" fill="#333333"/>
<path fill-rule="evenodd" clip-rule="evenodd" d="M89.4908 8.29248C89.4908 11.2579 90.6658 13.1043 92.4562 13.1043C94.3026 13.1043 95.4776 11.4257 95.4776 8.29248C95.4776 5.43898 94.4705 3.87235 92.5122 3.81639C90.4979 3.76044 89.4908 5.66278 89.4908 8.29248ZM92.4562 3.59259C95.1978 3.59259 97.4918 5.66278 97.4918 8.46034C97.4918 11.146 95.3097 13.2721 92.5122 13.2721C89.7706 13.2721 87.4766 11.09 87.4766 8.46034C87.4766 5.83063 89.7146 3.59259 92.4562 3.59259Z" fill="#333333"/>
<path fill-rule="evenodd" clip-rule="evenodd" d="M34.7707 5.66276L36.3933 9.63529H33.1481L34.7707 5.66276ZM40.142 13.0483C39.8063 13.0483 39.5265 12.7126 39.3587 12.4888C39.2468 12.265 35.498 3.14496 35.498 3.14496L32.085 11.4817C31.6934 12.5447 31.1339 13.0483 30.4065 13.0483V13.2721H33.204V13.0483C32.6445 12.9924 32.2529 12.7126 32.2529 12.3209C32.2529 11.9852 33.1481 9.85909 33.1481 9.85909H36.5052C36.5052 9.85909 37.4563 11.8733 37.4563 12.3209C37.5123 12.6566 36.9528 13.0483 36.4492 13.0483V13.2721H40.142V13.0483Z" fill="#333333"/>
<path fill-rule="evenodd" clip-rule="evenodd" d="M41.6527 11.5936C41.6527 12.4888 41.0932 12.8805 40.4777 13.0483V13.2721H43.2753V13.0483C42.492 12.8805 42.0443 12.321 42.0443 11.5936V5.32709L48.5906 13.44V5.60685C48.5906 4.48783 49.2061 3.81641 49.9334 3.81641V3.64856H46.8002V3.81641C47.6954 4.09617 48.3109 4.59973 48.3109 5.6628V10.4746L42.8277 3.64856H40.2539V3.81641C41.3729 3.87236 41.6527 4.76758 41.6527 4.99139V11.5936Z" fill="#333333"/>
<path fill-rule="evenodd" clip-rule="evenodd" d="M50.2692 3.87236C50.6608 3.87236 50.7727 3.87236 51.0525 4.43188C51.0525 4.43188 54.0179 9.18772 54.0179 9.24367V12.0972C54.0179 12.7126 53.4584 13.0483 52.6751 13.1043V13.2722H56.8154V13.1043C56.0881 13.0483 55.5845 12.7126 55.5845 12.0972V8.74011C55.5845 8.74011 57.4869 5.32709 57.6547 4.99139C58.1023 4.26402 58.7178 3.81641 59.5011 3.76046V3.64856H56.144L56.2 3.76046C57.2631 3.76046 57.5428 4.76758 57.1511 5.38304L55.3607 8.62821L53.2346 4.87948C52.8989 4.31997 53.3465 3.76046 54.1298 3.76046V3.64856H50.2692V3.87236Z" fill="#333333"/>
</svg>
