<svg width="84" height="84" viewBox="0 0 84 84" fill="none" xmlns="http://www.w3.org/2000/svg">
<path d="M59.5 77H24.5C10.5 77 7 73.5 7 59.5V52.5C7 38.5 10.5 35 24.5 35H59.5C73.5 35 77 38.5 77 52.5V59.5C77 73.5 73.5 77 59.5 77Z" stroke="#292D32" stroke-width="3.5" stroke-linecap="round" stroke-linejoin="round"/>
<path d="M21 35V28C21 16.415 24.5 7 42 7C57.75 7 63 14 63 24.5" stroke="#292D32" stroke-width="3.5" stroke-linecap="round" stroke-linejoin="round"/>
<path d="M42 64.75C46.8325 64.75 50.75 60.8325 50.75 56C50.75 51.1675 46.8325 47.25 42 47.25C37.1675 47.25 33.25 51.1675 33.25 56C33.25 60.8325 37.1675 64.75 42 64.75Z" stroke="#292D32" stroke-width="3.5" stroke-linecap="round" stroke-linejoin="round"/>
</svg>
