<svg width="15" height="37" viewBox="0 0 15 37" fill="none" xmlns="http://www.w3.org/2000/svg">
<path d="M8.20711 0.792893C7.81658 0.402369 7.18342 0.402369 6.79289 0.792893L0.428932 7.15685C0.0384078 7.54738 0.0384078 8.18054 0.428932 8.57107C0.819457 8.96159 1.45262 8.96159 1.84315 8.57107L7.5 2.91421L13.1569 8.57107C13.5474 8.96159 14.1805 8.96159 14.5711 8.57107C14.9616 8.18054 14.9616 7.54738 14.5711 7.15685L8.20711 0.792893ZM6.79289 36.7071C7.18342 37.0976 7.81658 37.0976 8.20711 36.7071L14.5711 30.3431C14.9616 29.9526 14.9616 29.3195 14.5711 28.9289C14.1805 28.5384 13.5474 28.5384 13.1569 28.9289L7.5 34.5858L1.84315 28.9289C1.45262 28.5384 0.819457 28.5384 0.428932 28.9289C0.0384078 29.3195 0.0384078 29.9526 0.428932 30.3431L6.79289 36.7071ZM6.5 1.5V36H8.5V1.5H6.5Z" fill="black"/>
</svg>
